<svg width="1920" height="205" viewBox="0 0 1920 205" fill="none" xmlns="http://www.w3.org/2000/svg">
<path d="M1854.74 68.3337H1841.95V81.4387C1845.38 76.4463 1849.75 72.078 1854.74 68.3337Z" fill="#1DA978" fill-opacity="0.04"/>
<path d="M1835.08 0C1828.53 0.312023 1821.98 1.87214 1816.05 4.0563V28.7061L1800.13 12.793C1794.83 16.5372 1790.46 21.2176 1786.72 26.21L1802.63 42.1231H1777.98C1775.8 48.0516 1774.24 54.6041 1773.92 61.1566H1835.39V0H1835.08Z" fill="#1DA978" fill-opacity="0.04"/>
<path d="M1902.48 55.2281C1901.85 50.8598 1900.61 46.4915 1899.05 42.1231H1873.77L1890 25.8979C1886.25 20.9056 1881.57 16.2252 1876.27 12.4809L1860.67 28.0821V4.0563C1854.74 1.87214 1848.19 0.312023 1841.63 0V61.4686H1865.97C1874.4 57.4123 1883.76 55.2281 1893.43 55.2281H1902.48Z" fill="#1DA978" fill-opacity="0.04"/>
<path d="M1835.08 92.9836V68.3337H1773.61C1773.92 75.1983 1775.48 81.4387 1777.67 87.3672H1801.69L1786.09 102.968C1789.84 108.273 1794.52 112.641 1799.51 116.697L1815.74 100.472V125.746C1819.79 127.306 1824.16 128.242 1828.84 129.178V120.442C1828.84 110.457 1831.03 101.096 1835.08 92.9836Z" fill="#1DA978" fill-opacity="0.04"/>
<path d="M1902.48 74.2612C1901.54 78.9416 1900.29 83.3099 1898.73 87.3662H1899.05C1900.92 83.3099 1901.85 78.9416 1902.48 74.2612Z" fill="#1DA978" fill-opacity="0.04"/>
<path d="M1890.62 103.592C1886.56 108.584 1881.88 112.952 1876.89 117.009L1877.2 117.321C1882.2 113.264 1886.88 108.584 1890.62 103.592Z" fill="#1DA978" fill-opacity="0.04"/>
<path d="M1860.98 125.435C1856.92 126.995 1852.87 127.931 1848.5 128.867V129.179C1852.87 128.555 1856.92 127.307 1860.98 126.059V125.435Z" fill="#1DA978" fill-opacity="0.04"/>
<path d="M1902.48 55.2273H1893.74C1883.76 55.2273 1874.71 57.4115 1866.28 61.4678C1862.23 63.3399 1858.48 65.8361 1854.74 68.3323C1849.75 72.0766 1845.38 76.4449 1841.95 81.4372C1840.7 82.9974 1839.45 84.8695 1838.51 86.4296C1837.27 88.6138 1836.02 90.4859 1835.08 92.6701C1831.03 101.095 1828.84 110.455 1828.84 120.128V128.865V148.522C1819.17 139.162 1806.69 132.609 1792.65 130.425C1792.65 130.425 1786.72 129.801 1783.6 129.801H1783.29C1780.17 129.801 1773.61 130.425 1773.61 130.425V149.146C1776.42 148.522 1779.23 148.21 1782.35 148.21C1807.94 148.21 1828.53 168.804 1829.15 194.39V204.374H1848.81V193.766C1849.12 168.18 1869.72 147.586 1895.61 147.586H1899.36C1924.94 147.586 1945.85 126.681 1945.85 101.095V55.2273H1902.48ZM1861.29 87.6777C1867.22 81.7493 1874.4 77.693 1882.82 75.5088C1881.88 79.8771 1880.01 83.6214 1878.14 87.3657C1877.83 87.9897 1877.2 88.9258 1876.89 89.5499C1875.02 92.3581 1873.15 94.5422 1870.96 97.0384C1868.78 99.2226 1865.97 101.407 1863.48 103.279C1862.85 103.591 1862.23 104.215 1861.29 104.527C1857.55 106.711 1853.8 108.271 1849.75 109.207C1851.31 100.783 1855.67 93.6062 1861.29 87.6777ZM1848.5 128.553C1852.87 127.929 1856.92 126.681 1860.98 125.121C1866.6 122.936 1871.9 120.128 1876.58 116.696C1881.88 112.952 1886.25 108.271 1890 103.279C1893.43 98.5985 1896.55 93.2941 1898.73 87.6777C1900.29 83.3094 1901.54 78.9411 1902.17 74.5727C1902.17 74.5727 1902.17 74.5727 1902.48 74.5727C1917.46 74.5727 1926.5 74.5727 1926.5 74.5727V101.095C1926.5 116.384 1914.02 129.801 1899.05 129.801H1894.37C1894.05 129.801 1893.74 129.801 1893.43 129.801C1893.12 129.801 1892.81 129.801 1892.49 129.801C1892.18 129.801 1891.87 129.801 1891.56 129.801C1891.25 129.801 1890.93 129.801 1890.31 129.801C1890 129.801 1889.69 129.801 1889.69 129.801C1889.37 129.801 1889.06 129.801 1888.44 129.801C1888.13 129.801 1888.13 129.801 1887.81 129.801C1886.88 129.801 1885.94 130.113 1885.32 130.113C1885.32 130.113 1885.32 130.113 1885.01 130.113C1884.69 130.113 1884.38 130.113 1884.07 130.113H1883.76C1883.44 130.113 1883.44 130.113 1883.13 130.113C1882.82 130.113 1882.2 130.113 1881.88 130.425C1881.57 130.425 1881.57 130.425 1881.26 130.425C1880.01 130.737 1878.45 131.049 1877.2 131.361H1876.89C1876.58 131.361 1875.96 131.673 1875.64 131.673H1875.33C1873.77 131.985 1872.52 132.609 1871.28 132.921C1871.28 132.921 1871.28 132.921 1870.96 132.921C1870.65 133.233 1870.03 133.233 1869.72 133.545H1869.4C1867.53 134.169 1865.66 135.105 1864.1 136.041H1863.79C1863.48 136.353 1862.85 136.353 1862.54 136.665C1861.29 137.289 1860.04 138.225 1858.8 138.85H1858.48C1858.17 139.162 1857.55 139.474 1857.24 139.786C1855.99 140.722 1854.74 141.658 1853.49 142.282C1853.18 142.594 1852.87 142.906 1852.24 143.218C1852.24 143.218 1852.24 143.218 1851.93 143.218C1850.68 144.154 1849.43 145.402 1848.19 146.338V127.617V128.553H1848.5Z" fill="#1DA978" fill-opacity="0.04"/>
<path d="M1621.19 79.6948C1619.63 79.6948 1618.39 79.6948 1616.83 79.6948C1595.92 79.6948 1575.95 83.1271 1557.23 89.6796C1559.73 95.92 1563.47 101.536 1567.53 106.529C1581.26 102.16 1595.61 99.3523 1610.59 98.7282C1612.15 94.3599 1614.02 90.3036 1616.51 86.2473C1617.76 84.0632 1619.32 81.879 1621.19 79.6948Z" fill="#1DA978" fill-opacity="0.04"/>
<path d="M1608.4 106.529C1597.79 107.777 1588.12 111.833 1579.69 117.449C1586.25 122.13 1593.74 125.562 1601.54 127.434C1603.41 126.81 1604.97 126.498 1606.84 125.874V120.258C1606.84 115.577 1607.46 110.897 1608.4 106.529Z" fill="#1DA978" fill-opacity="0.04"/>
<path d="M1552.86 55.3572C1552.55 58.4774 1552.24 61.5976 1552.24 65.0299C1552.24 68.1501 1552.55 71.2704 1552.86 74.3906H1626.19C1637.73 62.5337 1653.96 55.3572 1671.74 55.3572H1552.86Z" fill="#1DA978" fill-opacity="0.04"/>
<path d="M1676.11 39.7572C1673.61 33.5168 1669.87 27.9003 1665.81 22.908C1650.52 27.9003 1633.99 30.7085 1616.83 30.7085C1599.66 30.7085 1583.13 27.9003 1567.84 22.908C1563.47 27.9003 1560.04 33.5168 1557.54 39.7572C1576.26 46.3097 1596.23 49.742 1617.14 49.742C1637.42 49.742 1657.39 46.3097 1676.11 39.7572Z" fill="#1DA978" fill-opacity="0.04"/>
<path d="M1653.64 11.9847C1647.09 7.30439 1639.6 3.87214 1631.8 2C1627.12 3.56012 1622.13 4.49619 1616.83 4.49619C1611.52 4.49619 1606.53 3.56012 1601.85 2C1593.74 3.87214 1586.56 7.30439 1580.01 11.9847C1590.62 19.4733 1603.1 23.5296 1616.83 23.5296C1630.55 23.5296 1643.35 19.4733 1653.64 11.9847Z" fill="#1DA978" fill-opacity="0.04"/>
<path d="M1676.11 89.6802C1676.11 89.9897 1675.8 89.9897 1675.8 90.2993C1675.8 90.2993 1676.11 89.9897 1676.11 89.6802Z" fill="#1DA978" fill-opacity="0.04"/>
<path d="M1673.93 94.359C1674.55 93.1109 1675.17 91.5508 1675.8 90.3027C1675.17 91.8629 1674.55 93.1109 1673.93 94.359Z" fill="#1DA978" fill-opacity="0.04"/>
<path d="M1669.25 102.162C1669.87 101.226 1670.49 100.602 1670.81 99.6658C1670.18 100.602 1669.87 101.226 1669.25 102.162Z" fill="#1DA978" fill-opacity="0.04"/>
<path d="M1671.74 98.4161C1672.37 97.4801 1672.68 96.544 1673.3 95.6079C1672.68 96.544 1672.05 97.4801 1671.74 98.4161Z" fill="#1DA978" fill-opacity="0.04"/>
<path d="M1666.12 105.904C1666.75 104.968 1667.37 104.344 1668.31 103.407C1667.69 104.344 1666.75 104.968 1666.12 105.904Z" fill="#1DA978" fill-opacity="0.04"/>
<path d="M1670.81 99.6646C1671.12 99.3526 1671.43 98.7285 1671.74 98.4165C1671.43 98.7285 1671.12 99.3526 1670.81 99.6646Z" fill="#1DA978" fill-opacity="0.04"/>
<path d="M1668.31 103.408C1668.62 103.096 1668.93 102.472 1669.25 102.16C1668.93 102.472 1668.62 102.784 1668.31 103.408Z" fill="#1DA978" fill-opacity="0.04"/>
<path d="M1673.3 95.6087C1673.61 95.2967 1673.61 94.9846 1673.93 94.3606C1673.61 94.9846 1673.3 95.2967 1673.3 95.6087Z" fill="#1DA978" fill-opacity="0.04"/>
<path d="M1666.12 105.904C1666.12 106.213 1665.81 106.213 1665.81 106.523C1665.81 106.213 1666.12 106.213 1666.12 105.904Z" fill="#1DA978" fill-opacity="0.04"/>
<path d="M1680.48 55.3572H1671.74C1653.96 55.3572 1637.73 62.5337 1626.19 74.3906C1624.31 76.2627 1622.75 78.1349 1621.19 80.007C1619.63 82.1912 1618.07 84.3753 1616.51 86.5595C1614.02 90.3038 1612.15 94.6721 1610.59 99.0404C1609.65 101.537 1609.03 104.033 1608.4 106.529C1607.46 110.897 1606.84 115.578 1606.84 120.258V125.874V148.652C1597.17 139.291 1584.69 132.739 1570.65 130.555C1570.65 130.555 1564.72 129.931 1561.6 129.931H1561.29C1558.17 129.931 1551.61 130.555 1551.61 130.555V149.276C1554.42 148.652 1557.23 148.34 1560.35 148.34C1585.94 148.34 1606.53 168.934 1606.84 194.52V204.504H1626.5V193.895C1626.81 168.31 1647.4 147.716 1672.99 147.716H1676.73C1702.32 147.716 1723.23 126.81 1723.23 101.225V55.3572H1680.48ZM1628.06 106.841C1628.68 104.345 1629.93 101.849 1630.87 99.3525C1633.05 94.9841 1635.86 90.9278 1639.29 87.4956C1641.16 85.6234 1643.66 83.7513 1645.84 82.1912C1650.21 79.0709 1655.2 76.8868 1660.51 75.6387C1659.88 78.7589 1658.64 81.5671 1657.39 84.6874C1655.2 89.3677 1652.08 93.424 1648.65 97.1683C1647.09 98.7284 1645.53 99.9765 1643.66 101.225C1639.92 104.033 1635.86 106.217 1631.49 107.777C1629.93 108.401 1628.68 108.713 1627.12 109.025C1627.75 108.401 1627.75 107.465 1628.06 106.841ZM1704.82 100.601C1704.82 115.89 1692.34 129.307 1677.36 129.307H1672.68C1672.37 129.307 1672.05 129.307 1671.74 129.307C1671.43 129.307 1671.12 129.307 1670.81 129.307C1670.49 129.307 1670.18 129.307 1669.87 129.307C1669.56 129.307 1669.25 129.307 1668.62 129.307C1668.31 129.307 1668 129.307 1668 129.307C1667.69 129.307 1667.37 129.307 1666.75 129.307C1666.44 129.307 1666.44 129.307 1666.13 129.307C1665.19 129.307 1664.25 129.619 1663.63 129.619C1663.63 129.619 1663.63 129.619 1663.32 129.619C1663.01 129.619 1662.69 129.619 1662.38 129.619H1662.07C1661.76 129.619 1661.76 129.619 1661.44 129.619C1661.13 129.619 1660.51 129.619 1660.2 129.931C1659.88 129.931 1659.88 129.931 1659.57 129.931C1658.32 130.243 1656.76 130.555 1655.52 130.867H1655.2C1654.89 130.867 1654.27 131.179 1653.96 131.179H1653.64C1652.08 131.491 1650.84 132.115 1649.59 132.427C1649.59 132.427 1649.59 132.427 1649.28 132.427C1648.96 132.739 1648.34 132.739 1648.03 133.051H1647.72C1645.84 133.675 1643.97 134.611 1642.41 135.547H1642.1C1641.79 135.859 1641.16 135.859 1640.85 136.171C1639.6 136.795 1638.36 137.731 1637.11 138.355H1636.8C1636.48 138.667 1635.86 138.979 1635.55 139.291C1634.3 140.227 1633.05 141.164 1631.8 141.788C1631.49 142.1 1631.18 142.412 1630.55 142.724C1630.55 142.724 1630.55 142.724 1630.24 142.724C1628.99 143.66 1627.75 144.908 1626.5 145.844V128.371C1642.1 125.874 1655.83 117.762 1665.5 106.529C1665.81 106.217 1665.81 106.217 1665.81 105.905C1666.44 104.969 1667.06 104.345 1668 103.409C1668.31 103.097 1668.62 102.473 1668.93 102.161C1669.56 101.225 1670.18 100.601 1670.49 99.6645C1670.81 99.3525 1671.12 98.7284 1671.43 98.4164C1672.05 97.4803 1672.37 96.5442 1672.99 95.6082C1673.3 95.2962 1673.3 94.9841 1673.61 94.3601C1674.24 93.112 1674.86 91.5519 1675.49 90.3038C1675.49 89.9918 1675.8 89.9918 1675.8 89.6797C1677.98 84.6874 1679.23 79.695 1680.17 74.0786C1695.14 74.0786 1704.5 74.0786 1704.5 74.0786V100.601H1704.82Z" fill="#1DA978" fill-opacity="0.04"/>
<path d="M1336.73 45.557C1342.97 49.3013 1350.77 47.1171 1354.2 41.1887C1357.94 34.9482 1355.76 27.1476 1349.83 23.7154C1348.27 22.7793 1346.4 22.1553 1344.84 22.1553C1339.85 28.0837 1335.48 34.9482 1332.98 42.1248C1333.92 43.3729 1335.17 44.6209 1336.73 45.557Z" fill="#1DA978" fill-opacity="0.04"/>
<path d="M1371.36 24.6487C1377.6 21.2165 1379.78 13.4159 1376.35 7.17544C1375.42 5.61533 1374.17 4.05521 1372.92 3.11914C1365.43 5.61533 1358.57 9.67163 1352.64 14.664C1352.95 16.5361 1353.26 18.0963 1354.2 19.6564C1357.32 25.8968 1365.12 28.081 1371.36 24.6487Z" fill="#1DA978" fill-opacity="0.04"/>
<path d="M1362 60.5336C1367.93 64.2779 1376.04 62.0937 1379.47 56.1653C1383.22 49.9248 1381.03 42.1242 1375.1 38.692C1368.86 34.9477 1361.06 37.1319 1357.63 43.0603C1353.89 48.9887 1355.76 57.1013 1362 60.5336Z" fill="#1DA978" fill-opacity="0.04"/>
<path d="M1393.51 77.3818C1400.69 77.3818 1406.31 71.7654 1406.31 64.5889C1406.31 57.4123 1400.69 51.7959 1393.51 51.7959C1386.34 51.7959 1380.72 57.4123 1380.72 64.5889C1380.72 71.4534 1386.34 77.3818 1393.51 77.3818Z" fill="#1DA978" fill-opacity="0.04"/>
<path d="M1334.85 76.7568C1342.03 76.7568 1347.65 71.1404 1347.96 63.9639C1347.96 56.7873 1342.34 51.1709 1335.17 50.8589C1333.29 50.8589 1331.42 51.1709 1329.86 51.795C1328.92 55.8513 1328.61 59.9076 1328.61 64.2759C1328.61 68.0202 1328.92 71.7644 1329.55 75.1967C1331.42 76.1328 1332.98 76.4448 1334.85 76.7568Z" fill="#1DA978" fill-opacity="0.04"/>
<path d="M1457.48 54.9161C1457.48 54.2921 1457.48 53.668 1457.17 53.044C1455.61 52.4199 1453.73 51.7959 1451.86 51.7959C1448.74 51.7959 1445.62 53.044 1443.44 54.9161C1445.31 54.6041 1447.18 54.6041 1449.05 54.6041H1457.48V54.9161Z" fill="#1DA978" fill-opacity="0.04"/>
<path d="M1384.46 113.577C1381.97 115.761 1380.41 119.194 1380.41 122.938C1380.41 124.81 1380.72 126.682 1381.34 128.242C1382.28 128.554 1383.22 128.554 1383.84 128.554V120.442C1383.84 117.945 1384.15 115.761 1384.46 113.577Z" fill="#1DA978" fill-opacity="0.04"/>
<path d="M1396.63 81.4397C1395.7 81.1277 1394.45 80.8157 1393.2 80.8157C1386.03 80.8157 1380.41 86.4321 1380.41 93.6086C1380.41 97.977 1382.59 101.721 1386.03 104.217C1387.59 97.6649 1390.08 91.7365 1393.51 86.1201C1394.45 84.5599 1395.7 82.9998 1396.63 81.4397Z" fill="#1DA978" fill-opacity="0.04"/>
<path d="M1374.79 121.378C1378.54 115.137 1376.35 107.337 1370.11 103.904C1363.87 100.16 1356.07 102.344 1352.64 108.585C1351.7 110.145 1351.08 112.017 1351.08 113.577C1357.01 118.569 1363.87 122.626 1371.36 125.434C1372.61 124.186 1373.86 122.938 1374.79 121.378Z" fill="#1DA978" fill-opacity="0.04"/>
<path d="M1416.29 24.963C1422.53 28.3952 1430.33 26.5231 1433.76 20.2826C1434.7 18.7225 1435.32 16.8504 1435.32 15.2902C1429.4 10.2979 1422.53 6.24156 1415.04 3.43335C1413.48 4.36942 1412.23 5.92953 1411.3 7.48965C1408.18 13.7301 1410.36 21.5307 1416.29 24.963Z" fill="#1DA978" fill-opacity="0.04"/>
<path d="M1433.14 41.811C1436.57 48.0515 1444.37 49.9236 1450.61 46.4914C1452.17 45.5553 1453.42 44.3072 1454.67 42.7471C1452.17 35.2585 1448.12 28.394 1443.13 22.4656C1441.25 22.7776 1439.69 23.0896 1438.13 24.0257C1431.58 27.77 1429.71 35.5706 1433.14 41.811Z" fill="#1DA978" fill-opacity="0.04"/>
<path d="M1393.51 19.0334C1400.69 19.0334 1406.31 13.417 1406.31 6.24046C1406.31 4.36832 1405.99 2.49619 1405.06 0.93607C1401.31 0.312023 1397.26 0 1393.51 0C1389.46 0 1385.71 0.312023 1381.97 0.93607C1381.34 2.49619 1380.72 4.36832 1380.72 6.24046C1380.72 13.105 1386.34 19.0334 1393.51 19.0334Z" fill="#1DA978" fill-opacity="0.04"/>
<path d="M1430.02 43.6836C1426.59 37.4431 1418.79 35.571 1412.55 39.0032C1406.31 42.4355 1404.43 50.2361 1407.87 56.4765C1410.05 60.5328 1414.11 62.717 1418.16 63.029C1421.6 61.1569 1425.03 59.5968 1428.77 58.3487C1431.89 53.9804 1432.83 48.3639 1430.02 43.6836Z" fill="#1DA978" fill-opacity="0.04"/>
<path d="M1353.89 86.7422C1350.45 80.5018 1342.65 78.3176 1336.41 81.7499C1334.85 82.6859 1333.29 83.934 1332.36 85.1821C1334.85 92.6707 1338.91 99.5352 1343.9 105.464C1345.77 105.152 1347.33 104.84 1348.89 103.904C1355.14 100.783 1357.32 92.9827 1353.89 86.7422Z" fill="#1DA978" fill-opacity="0.04"/>
<path d="M1379.16 72.3885C1375.73 66.148 1367.93 63.9639 1361.69 67.3961C1355.45 70.8284 1353.26 78.629 1356.69 84.8694C1360.13 91.1099 1367.93 93.294 1374.17 89.8618C1380.72 86.4295 1382.9 78.629 1379.16 72.3885Z" fill="#1DA978" fill-opacity="0.04"/>
<path d="M1393.51 48.0515C1400.69 48.0515 1406.31 42.4351 1406.31 35.2585C1406.31 28.082 1400.69 22.4656 1393.51 22.4656C1386.34 22.4656 1380.72 28.082 1380.72 35.2585C1380.72 42.4351 1386.34 48.0515 1393.51 48.0515Z" fill="#1DA978" fill-opacity="0.04"/>
<path d="M1457.48 54.9167H1449.05C1447.18 54.9167 1445.31 54.9167 1443.44 55.2288C1438.13 55.5408 1433.14 56.7889 1428.46 58.349C1424.72 59.5971 1421.28 61.1572 1417.85 63.0294C1409.43 67.7097 1402.25 73.9502 1396.63 81.7508C1395.39 83.3109 1394.45 84.871 1393.51 86.4311C1390.08 92.0475 1387.59 97.976 1386.03 104.528C1385.4 107.649 1384.78 110.769 1384.46 113.889C1384.15 116.073 1384.15 118.257 1384.15 120.442V128.554V148.836C1374.48 139.163 1361.69 132.611 1347.65 130.738C1347.65 130.738 1341.72 130.114 1338.6 130.114H1338.29C1335.17 130.114 1328.61 130.738 1328.61 130.738V149.46C1331.42 148.836 1334.23 148.524 1337.35 148.524C1363.25 148.524 1383.84 169.429 1384.15 195.015V205H1404.12V194.391C1404.43 168.493 1425.03 147.9 1450.93 147.9H1454.98C1480.88 147.9 1501.79 126.994 1501.79 101.096V54.9167H1457.48ZM1413.48 90.7994C1414.42 89.5513 1415.36 88.3032 1416.6 87.3672C1420.66 83.3109 1425.65 79.8786 1431.27 77.3824C1433.45 76.4464 1435.64 75.8223 1438.13 75.1983C1437.2 78.9425 1435.95 82.3748 1434.08 85.8071C1433.45 87.0551 1432.83 88.3032 1431.89 89.2393C1430.02 92.0475 1428.15 94.5437 1425.96 96.7279C1423.47 99.2241 1420.35 101.72 1417.23 103.592C1416.6 103.904 1415.67 104.528 1415.04 104.84C1411.61 106.713 1408.18 107.961 1404.43 108.897C1406.31 102.032 1409.43 96.1038 1413.48 90.7994ZM1482.44 100.472C1482.44 115.761 1469.96 129.49 1454.67 129.49H1449.99C1449.68 129.49 1449.37 129.49 1449.05 129.49C1448.74 129.49 1448.43 129.49 1448.12 129.49C1447.81 129.49 1447.49 129.49 1447.18 129.49C1446.87 129.49 1446.56 129.49 1445.93 129.49C1445.62 129.49 1445.31 129.49 1445.31 129.49C1445 129.49 1444.69 129.49 1444.06 129.49C1443.75 129.49 1443.75 129.49 1443.44 129.49C1442.5 129.49 1441.57 129.802 1440.94 129.802C1440.94 129.802 1440.94 129.802 1440.63 129.802C1440.32 129.802 1440.01 129.802 1439.69 129.802H1439.38C1439.07 129.802 1439.07 129.802 1438.76 129.802C1438.44 129.802 1437.82 129.802 1437.51 130.114C1437.2 130.114 1437.2 130.114 1436.88 130.114C1435.64 130.426 1434.08 130.738 1432.83 131.05H1432.52C1432.2 131.05 1431.58 131.362 1431.27 131.362H1430.96C1429.4 131.674 1428.15 132.299 1426.9 132.611C1426.9 132.611 1426.9 132.611 1426.59 132.611C1426.28 132.923 1425.65 132.923 1425.34 133.235H1425.03C1423.16 133.859 1421.28 134.795 1419.72 135.731H1419.41C1419.1 136.043 1418.48 136.043 1418.16 136.355C1416.92 136.979 1415.67 137.915 1414.42 138.539H1414.11C1413.8 138.851 1413.17 139.163 1412.86 139.475C1411.61 140.411 1410.36 141.347 1409.11 142.283C1408.8 142.595 1408.49 142.907 1407.87 143.219C1407.87 143.219 1407.87 143.219 1407.55 143.219C1406.31 144.155 1405.06 145.403 1403.81 146.34V127.306C1431.58 122.938 1453.73 100.784 1457.79 72.7021C1472.77 72.7021 1482.13 72.7021 1482.13 72.7021V100.472H1482.44Z" fill="#1DA978" fill-opacity="0.04"/>
<path d="M1415.98 104.216C1415.67 104.528 1415.35 104.84 1415.04 104.84C1415.67 104.528 1416.6 103.904 1417.23 103.592C1416.92 103.904 1416.6 103.904 1415.98 104.216Z" fill="#1DA978" fill-opacity="0.04"/>
<path d="M1432.2 89.2386C1432.83 87.9906 1433.76 87.0545 1434.39 85.8064C1434.08 86.4304 1433.45 86.7425 1433.14 87.3665C1432.52 87.9906 1432.2 88.6146 1432.2 89.2386Z" fill="#1DA978" fill-opacity="0.04"/>
<path d="M966.126 68.3337H953.333V81.4387C956.765 76.4463 961.134 72.078 966.126 68.3337Z" fill="#1DA978" fill-opacity="0.04"/>
<path d="M946.468 0C939.916 0.312023 933.363 1.87214 927.435 4.0563V28.7061L911.521 12.793C906.217 16.5372 901.849 21.2176 898.104 26.21L914.018 42.1231H889.368C887.184 48.0516 885.624 54.6041 885.312 61.1566H946.78V0H946.468Z" fill="#1DA978" fill-opacity="0.04"/>
<path d="M1013.87 55.2281C1013.24 50.8598 1011.99 46.4915 1010.43 42.1231H985.159L1001.38 25.8979C997.64 20.9056 992.959 16.2252 987.655 12.4809L972.054 28.0821V4.0563C966.125 1.87214 959.573 0.312023 953.021 0V61.4686H977.358C985.783 57.4123 995.144 55.2281 1004.82 55.2281H1013.87Z" fill="#1DA978" fill-opacity="0.04"/>
<path d="M946.469 92.9836V68.3337H885C885.312 75.1983 886.872 81.4387 889.056 87.3672H913.082L897.481 102.968C901.225 108.273 905.906 112.641 910.898 116.697L927.123 100.472V125.746C931.179 127.306 935.548 128.242 940.228 129.178V120.442C940.228 110.457 942.412 101.096 946.469 92.9836Z" fill="#1DA978" fill-opacity="0.04"/>
<path d="M1013.87 74.2612C1012.93 78.9416 1011.68 83.3099 1010.12 87.3662H1010.43C1012.31 83.3099 1013.24 78.9416 1013.87 74.2612Z" fill="#1DA978" fill-opacity="0.04"/>
<path d="M1002.01 103.592C997.952 108.584 993.272 112.952 988.28 117.009L988.592 117.321C993.584 113.264 998.264 108.584 1002.01 103.592Z" fill="#1DA978" fill-opacity="0.04"/>
<path d="M972.366 125.435C968.31 126.995 964.253 127.931 959.885 128.867V129.179C964.253 128.555 968.31 127.307 972.366 126.059V125.435Z" fill="#1DA978" fill-opacity="0.04"/>
<path d="M1013.87 55.2273H1005.13C995.144 55.2273 986.096 57.4115 977.671 61.4678C973.615 63.3399 969.87 65.8361 966.126 68.3323C961.134 72.0766 956.765 76.4449 953.333 81.4372C952.085 82.9974 950.837 84.8695 949.901 86.4296C948.653 88.6138 947.405 90.4859 946.469 92.6701C942.412 101.095 940.228 110.455 940.228 120.128V128.865V148.522C930.555 139.162 918.074 132.609 904.033 130.425C904.033 130.425 898.105 129.801 894.985 129.801H894.673C891.553 129.801 885 130.425 885 130.425V149.146C887.808 148.522 890.616 148.21 893.737 148.21C919.323 148.21 939.916 168.804 940.54 194.39V204.374H960.198V193.766C960.51 168.18 981.103 147.586 1007 147.586H1010.75C1036.33 147.586 1057.24 126.681 1057.24 101.095V55.2273H1013.87ZM972.679 87.6777C978.607 81.7493 985.784 77.693 994.208 75.5088C993.272 79.8771 991.4 83.6214 989.528 87.3657C989.216 87.9897 988.592 88.9258 988.28 89.5499C986.408 92.3581 984.535 94.5422 982.351 97.0384C980.167 99.2226 977.359 101.407 974.863 103.279C974.239 103.591 973.615 104.215 972.679 104.527C968.934 106.711 965.19 108.271 961.134 109.207C962.694 100.783 967.062 93.6062 972.679 87.6777ZM959.886 128.553C964.254 127.929 968.31 126.681 972.367 125.121C977.983 122.936 983.287 120.128 987.968 116.696C993.272 112.952 997.64 108.271 1001.38 103.279C1004.82 98.5985 1007.94 93.2941 1010.12 87.6777C1011.68 83.3094 1012.93 78.9411 1013.55 74.5727C1013.55 74.5727 1013.55 74.5727 1013.87 74.5727C1028.84 74.5727 1037.89 74.5727 1037.89 74.5727V101.095C1037.89 116.384 1025.41 129.801 1010.43 129.801H1005.75C1005.44 129.801 1005.13 129.801 1004.82 129.801C1004.5 129.801 1004.19 129.801 1003.88 129.801C1003.57 129.801 1003.26 129.801 1002.94 129.801C1002.63 129.801 1002.32 129.801 1001.7 129.801C1001.38 129.801 1001.07 129.801 1001.07 129.801C1000.76 129.801 1000.45 129.801 999.825 129.801C999.513 129.801 999.513 129.801 999.201 129.801C998.264 129.801 997.328 130.113 996.704 130.113C996.704 130.113 996.704 130.113 996.392 130.113C996.08 130.113 995.768 130.113 995.456 130.113H995.144C994.832 130.113 994.832 130.113 994.52 130.113C994.208 130.113 993.584 130.113 993.272 130.425C992.96 130.425 992.96 130.425 992.648 130.425C991.4 130.737 989.84 131.049 988.592 131.361H988.28C987.968 131.361 987.344 131.673 987.032 131.673H986.72C985.159 131.985 983.911 132.609 982.663 132.921C982.663 132.921 982.663 132.921 982.351 132.921C982.039 133.233 981.415 133.233 981.103 133.545H980.791C978.919 134.169 977.047 135.105 975.487 136.041H975.175C974.863 136.353 974.239 136.353 973.927 136.665C972.679 137.289 971.43 138.225 970.182 138.85H969.87C969.558 139.162 968.934 139.474 968.622 139.786C967.374 140.722 966.126 141.658 964.878 142.282C964.566 142.594 964.254 142.906 963.63 143.218C963.63 143.218 963.63 143.218 963.318 143.218C962.07 144.154 960.822 145.402 959.574 146.338V127.617V128.553H959.886Z" fill="#1DA978" fill-opacity="0.04"/>
<path d="M732.581 79.6948C731.021 79.6948 729.773 79.6948 728.213 79.6948C707.307 79.6948 687.338 83.1271 668.616 89.6796C671.113 95.92 674.857 101.536 678.913 106.529C692.642 102.16 706.995 99.3523 721.972 98.7282C723.533 94.3599 725.405 90.3036 727.901 86.2473C729.149 84.0632 730.709 81.879 732.581 79.6948Z" fill="#1DA978" fill-opacity="0.04"/>
<path d="M719.788 106.529C709.179 107.777 699.507 111.833 691.082 117.449C697.635 122.13 705.123 125.562 712.924 127.434C714.796 126.81 716.356 126.498 718.228 125.874V120.258C718.228 115.577 718.852 110.897 719.788 106.529Z" fill="#1DA978" fill-opacity="0.04"/>
<path d="M664.248 55.3572C663.936 58.4774 663.624 61.5976 663.624 65.0299C663.624 68.1501 663.936 71.2704 664.248 74.3906H737.573C749.118 62.5337 765.343 55.3572 783.128 55.3572H664.248Z" fill="#1DA978" fill-opacity="0.04"/>
<path d="M787.498 39.7572C785.001 33.5168 781.257 27.9003 777.201 22.908C761.912 27.9003 745.374 30.7085 728.213 30.7085C711.052 30.7085 694.515 27.9003 679.225 22.908C674.857 27.9003 671.425 33.5168 668.929 39.7572C687.65 46.3097 707.62 49.742 728.525 49.742C748.807 49.742 768.776 46.3097 787.498 39.7572Z" fill="#1DA978" fill-opacity="0.04"/>
<path d="M765.032 11.9847C758.479 7.30439 750.991 3.87214 743.19 2C738.51 3.56012 733.517 4.49619 728.213 4.49619C722.909 4.49619 717.916 3.56012 713.236 2C705.123 3.87214 697.947 7.30439 691.394 11.9847C702.003 19.4733 714.484 23.5296 728.213 23.5296C741.942 23.5296 754.735 19.4733 765.032 11.9847Z" fill="#1DA978" fill-opacity="0.04"/>
<path d="M787.495 89.6802C787.495 89.9897 787.185 89.9897 787.185 90.2993C787.185 90.2993 787.495 89.9897 787.495 89.6802Z" fill="#1DA978" fill-opacity="0.04"/>
<path d="M785.313 94.359C785.937 93.1109 786.561 91.5508 787.185 90.3027C786.561 91.8629 785.937 93.1109 785.313 94.359Z" fill="#1DA978" fill-opacity="0.04"/>
<path d="M780.633 102.162C781.257 101.226 781.881 100.602 782.193 99.6658C781.569 100.602 781.257 101.226 780.633 102.162Z" fill="#1DA978" fill-opacity="0.04"/>
<path d="M783.129 98.4161C783.753 97.4801 784.065 96.544 784.689 95.6079C784.065 96.544 783.441 97.4801 783.129 98.4161Z" fill="#1DA978" fill-opacity="0.04"/>
<path d="M777.512 105.904C778.136 104.968 778.76 104.344 779.696 103.407C779.072 104.344 778.136 104.968 777.512 105.904Z" fill="#1DA978" fill-opacity="0.04"/>
<path d="M782.193 99.6646C782.505 99.3526 782.817 98.7285 783.129 98.4165C782.817 98.7285 782.505 99.3526 782.193 99.6646Z" fill="#1DA978" fill-opacity="0.04"/>
<path d="M779.696 103.408C780.008 103.096 780.32 102.472 780.632 102.16C780.32 102.472 780.008 102.784 779.696 103.408Z" fill="#1DA978" fill-opacity="0.04"/>
<path d="M784.689 95.6087C785.001 95.2967 785.001 94.9846 785.313 94.3606C785.001 94.9846 784.689 95.2967 784.689 95.6087Z" fill="#1DA978" fill-opacity="0.04"/>
<path d="M777.51 105.904C777.51 106.213 777.201 106.213 777.201 106.523C777.201 106.213 777.51 106.213 777.51 105.904Z" fill="#1DA978" fill-opacity="0.04"/>
<path d="M791.866 55.3572H783.129C765.344 55.3572 749.118 62.5337 737.574 74.3906C735.701 76.2627 734.141 78.1349 732.581 80.007C731.021 82.1912 729.461 84.3753 727.901 86.5595C725.405 90.3038 723.533 94.6721 721.972 99.0404C721.036 101.537 720.412 104.033 719.788 106.529C718.852 110.897 718.228 115.578 718.228 120.258V125.874V148.652C708.555 139.291 696.074 132.739 682.033 130.555C682.033 130.555 676.105 129.931 672.985 129.931H672.673C669.553 129.931 663 130.555 663 130.555V149.276C665.808 148.652 668.616 148.34 671.737 148.34C697.323 148.34 717.916 168.934 718.228 194.52V204.504H737.886V193.895C738.198 168.31 758.791 147.716 784.377 147.716H788.121C813.707 147.716 834.613 126.81 834.613 101.225V55.3572H791.866ZM739.446 106.841C740.07 104.345 741.318 101.849 742.254 99.3525C744.438 94.9841 747.246 90.9278 750.679 87.4956C752.551 85.6234 755.047 83.7513 757.231 82.1912C761.599 79.0709 766.592 76.8868 771.896 75.6387C771.272 78.7589 770.024 81.5671 768.776 84.6874C766.592 89.3677 763.472 93.424 760.039 97.1683C758.479 98.7284 756.919 99.9765 755.047 101.225C751.303 104.033 747.246 106.217 742.878 107.777C741.318 108.401 740.07 108.713 738.51 109.025C739.134 108.401 739.134 107.465 739.446 106.841ZM816.203 100.601C816.203 115.89 803.722 129.307 788.745 129.307H784.065C783.753 129.307 783.441 129.307 783.129 129.307C782.817 129.307 782.505 129.307 782.193 129.307C781.881 129.307 781.569 129.307 781.257 129.307C780.945 129.307 780.633 129.307 780.009 129.307C779.697 129.307 779.385 129.307 779.385 129.307C779.073 129.307 778.761 129.307 778.137 129.307C777.825 129.307 777.825 129.307 777.513 129.307C776.576 129.307 775.64 129.619 775.016 129.619C775.016 129.619 775.016 129.619 774.704 129.619C774.392 129.619 774.08 129.619 773.768 129.619H773.456C773.144 129.619 773.144 129.619 772.832 129.619C772.52 129.619 771.896 129.619 771.584 129.931C771.272 129.931 771.272 129.931 770.96 129.931C769.712 130.243 768.152 130.555 766.904 130.867H766.592C766.28 130.867 765.656 131.179 765.344 131.179H765.032C763.471 131.491 762.223 132.115 760.975 132.427C760.975 132.427 760.975 132.427 760.663 132.427C760.351 132.739 759.727 132.739 759.415 133.051H759.103C757.231 133.675 755.359 134.611 753.799 135.547H753.487C753.175 135.859 752.551 135.859 752.239 136.171C750.991 136.795 749.742 137.731 748.494 138.355H748.182C747.87 138.667 747.246 138.979 746.934 139.291C745.686 140.227 744.438 141.164 743.19 141.788C742.878 142.1 742.566 142.412 741.942 142.724C741.942 142.724 741.942 142.724 741.63 142.724C740.382 143.66 739.134 144.908 737.886 145.844V128.371C753.487 125.874 767.216 117.762 776.888 106.529C777.201 106.217 777.201 106.217 777.201 105.905C777.825 104.969 778.449 104.345 779.385 103.409C779.697 103.097 780.009 102.473 780.321 102.161C780.945 101.225 781.569 100.601 781.881 99.6645C782.193 99.3525 782.505 98.7284 782.817 98.4164C783.441 97.4803 783.753 96.5442 784.377 95.6082C784.689 95.2962 784.689 94.9841 785.001 94.3601C785.625 93.112 786.249 91.5519 786.873 90.3038C786.873 89.9918 787.185 89.9918 787.185 89.6797C789.369 84.6874 790.618 79.695 791.554 74.0786C806.531 74.0786 815.891 74.0786 815.891 74.0786V100.601H816.203Z" fill="#1DA978" fill-opacity="0.04"/>
<path d="M448.112 45.557C454.353 49.3013 462.153 47.1171 465.586 41.1887C469.33 34.9482 467.146 27.1476 461.217 23.7154C459.657 22.7793 457.785 22.1553 456.225 22.1553C451.233 28.0837 446.864 34.9482 444.368 42.1248C445.304 43.3729 446.552 44.6209 448.112 45.557Z" fill="#1DA978" fill-opacity="0.04"/>
<path d="M482.748 24.6487C488.988 21.2165 491.172 13.4159 487.74 7.17544C486.804 5.61533 485.556 4.05521 484.308 3.11914C476.819 5.61533 469.955 9.67163 464.026 14.664C464.338 16.5361 464.65 18.0963 465.586 19.6564C468.706 25.8968 476.507 28.081 482.748 24.6487Z" fill="#1DA978" fill-opacity="0.04"/>
<path d="M473.387 60.5336C479.316 64.2779 487.428 62.0937 490.86 56.1653C494.605 49.9248 492.421 42.1242 486.492 38.692C480.252 34.9477 472.451 37.1319 469.019 43.0603C465.275 48.9887 467.147 57.1013 473.387 60.5336Z" fill="#1DA978" fill-opacity="0.04"/>
<path d="M504.901 77.3818C512.078 77.3818 517.694 71.7654 517.694 64.5889C517.694 57.4123 512.078 51.7959 504.901 51.7959C497.725 51.7959 492.108 57.4123 492.108 64.5889C492.108 71.4534 497.725 77.3818 504.901 77.3818Z" fill="#1DA978" fill-opacity="0.04"/>
<path d="M446.24 76.7568C453.417 76.7568 459.033 71.1404 459.345 63.9639C459.345 56.7873 453.729 51.1709 446.552 50.8589C444.68 50.8589 442.808 51.1709 441.248 51.795C440.312 55.8513 440 59.9076 440 64.2759C440 68.0202 440.312 71.7644 440.936 75.1967C442.808 76.1328 444.368 76.4448 446.24 76.7568Z" fill="#1DA978" fill-opacity="0.04"/>
<path d="M568.866 54.9161C568.866 54.2921 568.866 53.668 568.553 53.044C566.993 52.4199 565.121 51.7959 563.249 51.7959C560.129 51.7959 557.009 53.044 554.824 54.9161C556.697 54.6041 558.569 54.6041 560.441 54.6041H568.866V54.9161Z" fill="#1DA978" fill-opacity="0.04"/>
<path d="M495.852 113.577C493.356 115.761 491.796 119.194 491.796 122.938C491.796 124.81 492.108 126.682 492.732 128.242C493.668 128.554 494.604 128.554 495.228 128.554V120.442C495.228 117.945 495.54 115.761 495.852 113.577Z" fill="#1DA978" fill-opacity="0.04"/>
<path d="M508.021 81.4397C507.085 81.1277 505.837 80.8157 504.589 80.8157C497.412 80.8157 491.796 86.4321 491.796 93.6086C491.796 97.977 493.98 101.721 497.412 104.217C498.972 97.6649 501.469 91.7365 504.901 86.1201C505.837 84.5599 507.085 82.9998 508.021 81.4397Z" fill="#1DA978" fill-opacity="0.04"/>
<path d="M486.179 121.378C489.924 115.137 487.739 107.337 481.499 103.904C475.259 100.16 467.458 102.344 464.026 108.585C463.09 110.145 462.466 112.017 462.466 113.577C468.394 118.569 475.259 122.626 482.747 125.434C483.995 124.186 485.243 122.938 486.179 121.378Z" fill="#1DA978" fill-opacity="0.04"/>
<path d="M527.678 24.963C533.919 28.3952 541.719 26.5231 545.151 20.2826C546.087 18.7225 546.711 16.8504 546.711 15.2902C540.783 10.2979 533.919 6.24156 526.43 3.43335C524.87 4.36942 523.622 5.92953 522.686 7.48965C519.565 13.7301 521.75 21.5307 527.678 24.963Z" fill="#1DA978" fill-opacity="0.04"/>
<path d="M544.528 41.811C547.961 48.0515 555.761 49.9236 562.002 46.4914C563.562 45.5553 564.81 44.3072 566.058 42.7471C563.562 35.2585 559.506 28.394 554.513 22.4656C552.641 22.7776 551.081 23.0896 549.521 24.0257C542.968 27.77 541.096 35.5706 544.528 41.811Z" fill="#1DA978" fill-opacity="0.04"/>
<path d="M504.901 19.0334C512.078 19.0334 517.694 13.417 517.694 6.24046C517.694 4.36832 517.382 2.49619 516.446 0.93607C512.702 0.312023 508.645 0 504.901 0C500.845 0 497.101 0.312023 493.356 0.93607C492.732 2.49619 492.108 4.36832 492.108 6.24046C492.108 13.105 497.725 19.0334 504.901 19.0334Z" fill="#1DA978" fill-opacity="0.04"/>
<path d="M541.407 43.6836C537.975 37.4431 530.175 35.571 523.934 39.0032C517.694 42.4355 515.821 50.2361 519.254 56.4765C521.438 60.5328 525.494 62.717 529.55 63.029C532.983 61.1569 536.415 59.5968 540.159 58.3487C543.28 53.9804 544.216 48.3639 541.407 43.6836Z" fill="#1DA978" fill-opacity="0.04"/>
<path d="M465.274 86.7422C461.842 80.5018 454.041 78.3176 447.801 81.7499C446.241 82.6859 444.681 83.934 443.745 85.1821C446.241 92.6707 450.297 99.5352 455.289 105.464C457.162 105.152 458.722 104.84 460.282 103.904C466.522 100.783 468.706 92.9827 465.274 86.7422Z" fill="#1DA978" fill-opacity="0.04"/>
<path d="M490.548 72.3885C487.116 66.148 479.315 63.9639 473.075 67.3961C466.834 70.8284 464.65 78.629 468.082 84.8694C471.514 91.1099 479.315 93.294 485.555 89.8618C492.108 86.4295 494.292 78.629 490.548 72.3885Z" fill="#1DA978" fill-opacity="0.04"/>
<path d="M504.901 48.0515C512.078 48.0515 517.694 42.4351 517.694 35.2585C517.694 28.082 512.078 22.4656 504.901 22.4656C497.725 22.4656 492.108 28.082 492.108 35.2585C492.108 42.4351 497.725 48.0515 504.901 48.0515Z" fill="#1DA978" fill-opacity="0.04"/>
<path d="M568.866 54.9167H560.441C558.569 54.9167 556.697 54.9167 554.825 55.2288C549.52 55.5408 544.528 56.7889 539.847 58.349C536.103 59.5971 532.671 61.1572 529.239 63.0294C520.814 67.7097 513.637 73.9502 508.021 81.7508C506.773 83.3109 505.837 84.871 504.901 86.4311C501.469 92.0475 498.972 97.976 497.412 104.528C496.788 107.649 496.164 110.769 495.852 113.889C495.54 116.073 495.54 118.257 495.54 120.442V128.554V148.836C485.867 139.163 473.074 132.611 459.033 130.738C459.033 130.738 453.105 130.114 449.985 130.114H449.673C446.552 130.114 440 130.738 440 130.738V149.46C442.808 148.836 445.616 148.524 448.737 148.524C474.635 148.524 495.228 169.429 495.54 195.015V205H515.51V194.391C515.822 168.493 536.415 147.9 562.313 147.9H566.369C592.267 147.9 613.173 126.994 613.173 101.096V54.9167H568.866ZM524.87 90.7994C525.806 89.5513 526.742 88.3032 527.991 87.3672C532.047 83.3109 537.039 79.8786 542.656 77.3824C544.84 76.4464 547.024 75.8223 549.52 75.1983C548.584 78.9425 547.336 82.3748 545.464 85.8071C544.84 87.0551 544.216 88.3032 543.28 89.2393C541.408 92.0475 539.535 94.5437 537.351 96.7279C534.855 99.2241 531.735 101.72 528.615 103.592C527.991 103.904 527.054 104.528 526.43 104.84C522.998 106.713 519.566 107.961 515.822 108.897C517.694 102.032 520.814 96.1038 524.87 90.7994ZM593.827 100.472C593.827 115.761 581.347 129.49 566.057 129.49H561.377C561.065 129.49 560.753 129.49 560.441 129.49C560.129 129.49 559.817 129.49 559.505 129.49C559.193 129.49 558.881 129.49 558.569 129.49C558.257 129.49 557.945 129.49 557.321 129.49C557.009 129.49 556.697 129.49 556.697 129.49C556.385 129.49 556.073 129.49 555.449 129.49C555.137 129.49 555.137 129.49 554.825 129.49C553.888 129.49 552.952 129.802 552.328 129.802C552.328 129.802 552.328 129.802 552.016 129.802C551.704 129.802 551.392 129.802 551.08 129.802H550.768C550.456 129.802 550.456 129.802 550.144 129.802C549.832 129.802 549.208 129.802 548.896 130.114C548.584 130.114 548.584 130.114 548.272 130.114C547.024 130.426 545.464 130.738 544.216 131.05H543.904C543.592 131.05 542.968 131.362 542.656 131.362H542.344C540.784 131.674 539.535 132.299 538.287 132.611C538.287 132.611 538.287 132.611 537.975 132.611C537.663 132.923 537.039 132.923 536.727 133.235H536.415C534.543 133.859 532.671 134.795 531.111 135.731H530.799C530.487 136.043 529.863 136.043 529.551 136.355C528.303 136.979 527.054 137.915 525.806 138.539H525.494C525.182 138.851 524.558 139.163 524.246 139.475C522.998 140.411 521.75 141.347 520.502 142.283C520.19 142.595 519.878 142.907 519.254 143.219C519.254 143.219 519.254 143.219 518.942 143.219C517.694 144.155 516.446 145.403 515.198 146.34V127.306C542.968 122.938 565.121 100.784 569.178 72.7021C584.155 72.7021 593.515 72.7021 593.515 72.7021V100.472H593.827Z" fill="#1DA978" fill-opacity="0.04"/>
<path d="M527.366 104.216C527.054 104.528 526.742 104.84 526.43 104.84C527.054 104.528 527.99 103.904 528.614 103.592C528.302 103.904 527.99 103.904 527.366 104.216Z" fill="#1DA978" fill-opacity="0.04"/>
<path d="M543.592 89.2386C544.216 87.9906 545.152 87.0545 545.776 85.8064C545.464 86.4304 544.84 86.7425 544.528 87.3665C543.904 87.9906 543.592 88.6146 543.592 89.2386Z" fill="#1DA978" fill-opacity="0.04"/>
<path d="M1174.08 83.6859C1173.46 83.6859 1172.84 83.6859 1172.21 83.6859C1161.92 83.6859 1153.8 75.5733 1153.8 65.2765C1153.8 54.9798 1161.92 46.8672 1172.21 46.8672C1182.51 46.8672 1190.62 55.2918 1190.62 65.2765C1190.62 65.9006 1190.62 66.5246 1190.62 67.1487C1196.24 63.4044 1202.48 60.2842 1209.03 58.1C1205.91 40.6267 1190.62 27.5217 1172.21 27.5217C1151.62 27.5217 1134.77 44.371 1134.77 64.9645C1134.77 83.3739 1147.87 98.663 1165.35 101.783C1166.91 96.4789 1169.4 91.1745 1172.21 86.4941C1172.52 85.558 1173.15 84.622 1174.08 83.6859Z" fill="#1DA978" fill-opacity="0.04"/>
<path d="M1163.16 109.896C1142.26 105.84 1126.35 87.4304 1126.35 65.2768C1126.35 40.0029 1146.63 19.7214 1171.9 19.7214C1194.06 19.7214 1212.46 35.6346 1216.52 56.5401C1219.95 55.9161 1223.39 55.6041 1227.13 55.6041H1235.24C1230.56 24.7138 1204.04 1 1171.9 1C1136.33 1 1107.62 29.7061 1107.62 65.2768C1107.62 97.4152 1131.34 123.937 1162.54 128.618V120.505C1162.54 116.761 1162.85 113.328 1163.16 109.896Z" fill="#1DA978" fill-opacity="0.04"/>
<path d="M1171.9 54.6697C1165.97 54.6697 1161.29 59.35 1161.29 65.2785C1161.29 71.2069 1165.97 75.8873 1171.9 75.8873C1177.83 75.8873 1182.51 71.2069 1182.51 65.2785C1182.51 59.35 1177.83 54.6697 1171.9 54.6697Z" fill="#1DA978" fill-opacity="0.04"/>
<path d="M1235.24 55.6047H1227.13C1223.7 55.6047 1219.95 55.9168 1216.52 56.5408C1213.71 56.8528 1211.22 57.4769 1208.72 58.4129C1202.17 60.2851 1195.93 63.4053 1190.31 67.4616C1184.07 71.8299 1178.45 77.4464 1174.08 83.9989C1173.46 84.9349 1172.84 86.183 1171.9 87.1191C1169.09 91.7994 1166.6 97.1038 1165.04 102.408C1164.41 104.904 1163.79 107.713 1163.16 110.209C1162.54 113.641 1162.23 117.073 1162.23 120.818V128.93V149.212C1152.56 139.851 1140.07 133.299 1126.03 131.426C1126.03 131.426 1120.1 130.802 1116.98 130.802C1116.98 130.802 1116.98 130.802 1116.67 130.802C1113.55 130.802 1107 131.426 1107 131.426V149.836C1109.81 149.212 1112.62 148.9 1115.74 148.9C1141.32 148.9 1161.92 169.493 1162.23 195.079V204.752H1181.89V194.143C1182.2 168.557 1202.79 147.964 1228.38 147.964H1232.12C1257.71 147.964 1278.61 127.058 1278.61 101.472V55.6047H1235.24ZM1194.99 87.7431C1198.42 84.3109 1202.48 81.5027 1206.85 79.3185C1209.97 77.7584 1213.09 76.5103 1216.52 75.8862C1216.52 76.1983 1216.21 76.5103 1216.21 76.8223C1215.9 77.7584 1215.58 79.0065 1215.27 79.9425C1214.96 80.8786 1214.65 81.5027 1214.34 82.4387V82.7508C1213.71 83.9988 1213.09 85.559 1212.46 86.8071C1212.46 86.8071 1212.46 86.8071 1212.46 87.1191C1210.28 90.8634 1207.78 94.6076 1204.66 97.7279C1198.73 103.656 1191.56 107.713 1183.45 109.897C1184.38 106.465 1185.32 103.344 1186.88 100.536C1188.44 95.2317 1191.25 91.1754 1194.99 87.7431ZM1259.89 100.848C1259.89 116.137 1247.41 129.554 1232.43 129.554H1227.75C1227.44 129.554 1227.13 129.554 1226.82 129.554C1226.5 129.554 1226.19 129.554 1225.88 129.554C1225.57 129.554 1225.26 129.554 1224.94 129.554C1224.63 129.554 1224.32 129.554 1223.7 129.554C1223.38 129.554 1223.07 129.554 1223.07 129.554C1222.76 129.554 1222.45 129.554 1221.82 129.554C1221.51 129.554 1221.51 129.554 1221.2 129.554C1220.26 129.554 1219.33 129.866 1218.7 129.866C1218.7 129.866 1218.7 129.866 1218.39 129.866C1218.08 129.866 1217.77 129.866 1217.46 129.866H1217.14C1217.14 129.866 1217.14 129.866 1216.83 129.866C1216.52 129.866 1216.52 129.866 1216.21 129.866C1215.9 129.866 1215.27 129.866 1214.96 130.178C1214.65 130.178 1214.65 130.178 1214.34 130.178C1213.09 130.49 1211.53 130.802 1210.28 131.114H1209.97C1209.66 131.114 1209.03 131.426 1208.72 131.426H1208.41C1207.16 131.738 1205.6 132.362 1204.35 132.674C1204.35 132.674 1204.35 132.674 1204.04 132.674C1203.73 132.986 1203.1 132.986 1202.79 133.299H1202.48C1200.61 133.923 1198.73 134.859 1197.17 135.795H1196.86C1196.55 136.107 1195.93 136.107 1195.61 136.419C1194.37 137.043 1193.12 137.979 1191.87 138.603H1191.56C1191.25 138.915 1190.62 139.227 1190.31 139.539C1189.06 140.475 1187.81 141.099 1186.57 142.035C1186.25 142.347 1185.94 142.659 1185.32 142.971C1185.32 142.971 1185.32 142.971 1185.01 142.971C1183.76 143.907 1182.51 145.155 1181.57 146.091V128.618C1209.34 124.25 1231.19 102.408 1235.24 74.6382C1250.22 74.6382 1259.58 74.6382 1259.58 74.6382V100.848H1259.89Z" fill="#1DA978" fill-opacity="0.04"/>
<path d="M77.126 68.3337H64.333V81.4387C67.7653 76.4463 72.1336 72.078 77.126 68.3337Z" fill="#1DA978" fill-opacity="0.04"/>
<path d="M57.4681 0C50.9156 0.312023 44.3631 1.87214 38.4347 4.0563V28.7061L22.5215 12.793C17.2171 16.5372 12.8487 21.2176 9.10445 26.21L25.0177 42.1231H0.367788C-1.81638 48.0516 -3.37645 54.6041 -3.68848 61.1566H57.7801V0H57.4681Z" fill="#1DA978" fill-opacity="0.04"/>
<path d="M124.865 55.2281C124.241 50.8598 122.993 46.4915 121.433 42.1231H96.1589L112.384 25.8979C108.64 20.9056 103.959 16.2252 98.6551 12.4809L83.0539 28.0821V4.0563C77.1255 1.87214 70.573 0.312023 64.0205 0V61.4686H88.3583C96.783 57.4123 106.144 55.2281 115.816 55.2281H124.865Z" fill="#1DA978" fill-opacity="0.04"/>
<path d="M57.4686 92.9836V68.3337H-4C-3.68798 75.1983 -2.12785 81.4387 0.0563121 87.3672H24.0821L8.48093 102.968C12.2252 108.273 16.9056 112.641 21.8979 116.697L38.1231 100.472V125.746C42.1794 127.306 46.5478 128.242 51.2281 129.178V120.442C51.2281 110.457 53.4123 101.096 57.4686 92.9836Z" fill="#1DA978" fill-opacity="0.04"/>
<path d="M124.866 74.2612C123.93 78.9416 122.682 83.3099 121.122 87.3662H121.434C123.306 83.3099 124.242 78.9416 124.866 74.2612Z" fill="#1DA978" fill-opacity="0.04"/>
<path d="M113.009 103.592C108.952 108.584 104.272 112.952 99.2795 117.009L99.5915 117.321C104.584 113.264 109.264 108.584 113.009 103.592Z" fill="#1DA978" fill-opacity="0.04"/>
<path d="M83.3659 125.435C79.3096 126.995 75.2533 127.931 70.885 128.867V129.179C75.2533 128.555 79.3096 127.307 83.3659 126.059V125.435Z" fill="#1DA978" fill-opacity="0.04"/>
<path d="M124.866 55.2273H116.129C106.144 55.2273 97.0955 57.4115 88.6709 61.4678C84.6146 63.3399 80.8703 65.8361 77.126 68.3323C72.1337 72.0766 67.7653 76.4449 64.3331 81.4372C63.085 82.9974 61.8369 84.8695 60.9008 86.4296C59.6528 88.6138 58.4046 90.4859 57.4686 92.6701C53.4123 101.095 51.2281 110.455 51.2281 120.128V128.865V148.522C41.5554 139.162 29.0745 132.609 15.0334 130.425C15.0334 130.425 9.10497 129.801 5.98473 129.801H5.67274C2.55251 129.801 -4 130.425 -4 130.425V149.146C-1.19179 148.522 1.61643 148.21 4.73666 148.21C30.3226 148.21 50.9161 168.804 51.5401 194.39V204.374H71.1976V193.766C71.5097 168.18 92.1032 147.586 118.001 147.586H121.745C147.331 147.586 168.237 126.681 168.237 101.095V55.2273H124.866ZM83.6786 87.6777C89.607 81.7493 96.7835 77.693 105.208 75.5088C104.272 79.8771 102.4 83.6214 100.528 87.3657C100.216 87.9897 99.5917 88.9258 99.2797 89.5499C97.4076 92.3581 95.5354 94.5422 93.3512 97.0384C91.1671 99.2226 88.3589 101.407 85.8627 103.279C85.2387 103.591 84.6146 104.215 83.6786 104.527C79.9343 106.711 76.19 108.271 72.1337 109.207C73.6938 100.783 78.0621 93.6062 83.6786 87.6777ZM70.8856 128.553C75.2539 127.929 79.3102 126.681 83.3665 125.121C88.9829 122.936 94.2873 120.128 98.9677 116.696C104.272 112.952 108.64 108.271 112.385 103.279C115.817 98.5985 118.937 93.2941 121.121 87.6777C122.681 83.3094 123.93 78.9411 124.554 74.5727C124.554 74.5727 124.554 74.5727 124.866 74.5727C139.843 74.5727 148.891 74.5727 148.891 74.5727V101.095C148.891 116.384 136.41 129.801 121.433 129.801H116.753C116.441 129.801 116.129 129.801 115.817 129.801C115.505 129.801 115.193 129.801 114.881 129.801C114.569 129.801 114.257 129.801 113.945 129.801C113.633 129.801 113.321 129.801 112.697 129.801C112.385 129.801 112.073 129.801 112.073 129.801C111.761 129.801 111.449 129.801 110.825 129.801C110.513 129.801 110.513 129.801 110.201 129.801C109.264 129.801 108.328 130.113 107.704 130.113C107.704 130.113 107.704 130.113 107.392 130.113C107.08 130.113 106.768 130.113 106.456 130.113H106.144C105.832 130.113 105.832 130.113 105.52 130.113C105.208 130.113 104.584 130.113 104.272 130.425C103.96 130.425 103.96 130.425 103.648 130.425C102.4 130.737 100.84 131.049 99.5917 131.361H99.2797C98.9677 131.361 98.3436 131.673 98.0316 131.673H97.7196C96.1595 131.985 94.9114 132.609 93.6633 132.921C93.6633 132.921 93.6633 132.921 93.3512 132.921C93.0392 133.233 92.4152 133.233 92.1032 133.545H91.7911C89.919 134.169 88.0469 135.105 86.4867 136.041H86.1747C85.8627 136.353 85.2387 136.353 84.9266 136.665C83.6785 137.289 82.4305 138.225 81.1824 138.85H80.8703C80.5583 139.162 79.9343 139.474 79.6222 139.786C78.3742 140.722 77.1261 141.658 75.878 142.282C75.5659 142.594 75.2539 142.906 74.6299 143.218C74.6299 143.218 74.6299 143.218 74.3179 143.218C73.0698 144.154 71.8216 145.402 70.5735 146.338V127.617V128.553H70.8856Z" fill="#1DA978" fill-opacity="0.04"/>
<path d="M285.085 83.6859C284.461 83.6859 283.837 83.6859 283.213 83.6859C272.916 83.6859 264.803 75.5733 264.803 65.2765C264.803 54.9798 272.916 46.8672 283.213 46.8672C293.509 46.8672 301.622 55.2918 301.622 65.2765C301.622 65.9006 301.622 66.5246 301.622 67.1487C307.238 63.4044 313.479 60.2842 320.031 58.1C316.911 40.6267 301.622 27.5217 283.213 27.5217C262.619 27.5217 245.77 44.371 245.77 64.9645C245.77 83.3739 258.875 98.663 276.348 101.783C277.908 96.4789 280.404 91.1745 283.213 86.4941C283.525 85.558 284.149 84.622 285.085 83.6859Z" fill="#1DA978" fill-opacity="0.04"/>
<path d="M274.165 109.896C253.259 105.84 237.346 87.4304 237.346 65.2768C237.346 40.0029 257.628 19.7214 282.902 19.7214C305.055 19.7214 323.465 35.6346 327.521 56.5401C330.953 55.9161 334.385 55.6041 338.13 55.6041H346.242C341.562 24.7138 315.04 1 282.902 1C247.331 1 218.625 29.7061 218.625 65.2768C218.625 97.4152 242.339 123.937 273.541 128.618V120.505C273.541 116.761 273.853 113.328 274.165 109.896Z" fill="#1DA978" fill-opacity="0.04"/>
<path d="M282.901 54.6697C276.973 54.6697 272.292 59.35 272.292 65.2785C272.292 71.2069 276.973 75.8873 282.901 75.8873C288.829 75.8873 293.51 71.2069 293.51 65.2785C293.51 59.35 288.829 54.6697 282.901 54.6697Z" fill="#1DA978" fill-opacity="0.04"/>
<path d="M346.242 55.6047H338.129C334.697 55.6047 330.952 55.9168 327.52 56.5408C324.712 56.8528 322.216 57.4769 319.72 58.4129C313.167 60.2851 306.927 63.4053 301.31 67.4616C295.07 71.8299 289.453 77.4464 285.085 83.9989C284.461 84.9349 283.837 86.183 282.901 87.1191C280.093 91.7994 277.596 97.1038 276.036 102.408C275.412 104.904 274.788 107.713 274.164 110.209C273.54 113.641 273.228 117.073 273.228 120.818V128.93V149.212C263.555 139.851 251.074 133.299 237.033 131.426C237.033 131.426 231.105 130.802 227.985 130.802C227.985 130.802 227.985 130.802 227.673 130.802C224.553 130.802 218 131.426 218 131.426V149.836C220.808 149.212 223.616 148.9 226.737 148.9C252.323 148.9 272.916 169.493 273.228 195.079V204.752H292.886V194.143C293.198 168.557 313.791 147.964 339.377 147.964H343.121C368.707 147.964 389.613 127.058 389.613 101.472V55.6047H346.242ZM305.991 87.7431C309.423 84.3109 313.479 81.5027 317.847 79.3185C320.968 77.7584 324.088 76.5103 327.52 75.8862C327.52 76.1983 327.208 76.5103 327.208 76.8223C326.896 77.7584 326.584 79.0065 326.272 79.9425C325.96 80.8786 325.648 81.5027 325.336 82.4387V82.7508C324.712 83.9988 324.088 85.559 323.464 86.8071C323.464 86.8071 323.464 86.8071 323.464 87.1191C321.28 90.8634 318.784 94.6076 315.663 97.7279C309.735 103.656 302.558 107.713 294.446 109.897C295.382 106.465 296.318 103.344 297.878 100.536C299.438 95.2317 302.246 91.1754 305.991 87.7431ZM370.891 100.848C370.891 116.137 358.41 129.554 343.433 129.554H338.753C338.441 129.554 338.129 129.554 337.817 129.554C337.505 129.554 337.193 129.554 336.881 129.554C336.569 129.554 336.257 129.554 335.945 129.554C335.633 129.554 335.321 129.554 334.697 129.554C334.385 129.554 334.073 129.554 334.073 129.554C333.761 129.554 333.449 129.554 332.825 129.554C332.513 129.554 332.513 129.554 332.2 129.554C331.264 129.554 330.328 129.866 329.704 129.866C329.704 129.866 329.704 129.866 329.392 129.866C329.08 129.866 328.768 129.866 328.456 129.866H328.144C328.144 129.866 328.144 129.866 327.832 129.866C327.52 129.866 327.52 129.866 327.208 129.866C326.896 129.866 326.272 129.866 325.96 130.178C325.648 130.178 325.648 130.178 325.336 130.178C324.088 130.49 322.528 130.802 321.28 131.114H320.968C320.656 131.114 320.032 131.426 319.72 131.426H319.408C318.159 131.738 316.599 132.362 315.351 132.674C315.351 132.674 315.351 132.674 315.039 132.674C314.727 132.986 314.103 132.986 313.791 133.299H313.479C311.607 133.923 309.735 134.859 308.175 135.795H307.863C307.551 136.107 306.927 136.107 306.615 136.419C305.367 137.043 304.118 137.979 302.87 138.603H302.558C302.246 138.915 301.622 139.227 301.31 139.539C300.062 140.475 298.814 141.099 297.566 142.035C297.254 142.347 296.942 142.659 296.318 142.971C296.318 142.971 296.318 142.971 296.006 142.971C294.758 143.907 293.51 145.155 292.574 146.091V128.618C320.344 124.25 342.185 102.408 346.242 74.6382C361.219 74.6382 370.579 74.6382 370.579 74.6382V100.848H370.891Z" fill="#1DA978" fill-opacity="0.04"/>
</svg>
