<svg width="106" height="54" viewBox="0 0 106 54" fill="none" xmlns="http://www.w3.org/2000/svg">
<path d="M66.1746 8.64029H64.5645V10.2897C64.9965 9.66138 65.5463 9.11156 66.1746 8.64029Z" fill="#00BBB4"/>
<path d="M63.7004 0.0395508C62.8757 0.0788236 62.0509 0.275188 61.3048 0.550098V3.65265L59.3018 1.64974C58.6342 2.12101 58.0844 2.7101 57.6131 3.33847L59.616 5.34138H56.5135C56.2386 6.08757 56.0422 6.9123 56.0029 7.73703H63.7397V0.0395508H63.7004Z" fill="#00BBB4"/>
<path d="M72.1836 6.99084C72.105 6.44102 71.948 5.8912 71.7516 5.34138H68.5705L70.6127 3.2992C70.1414 2.67083 69.5523 2.08174 68.8847 1.61046L66.921 3.57411V0.550098C66.1748 0.275188 65.3501 0.0788236 64.5254 0.0395508V7.7763H67.5887C68.649 7.26575 69.8272 6.99084 71.0447 6.99084H72.1836Z" fill="#00BBB4"/>
<path d="M63.7006 11.7428V8.64029H55.9639C56.0031 9.50429 56.1995 10.2897 56.4744 11.0359H59.4984L57.5348 12.9996C58.0061 13.6672 58.5951 14.217 59.2235 14.7276L61.2657 12.6854V15.8665C61.7762 16.0629 62.3261 16.1807 62.9152 16.2985V15.1989C62.9152 13.9421 63.1901 12.7639 63.7006 11.7428Z" fill="#00BBB4"/>
<path d="M70.6913 13.0781C70.22 13.7457 69.6309 14.2956 69.0025 14.7668L68.9633 14.7276C68.3742 15.1596 67.7065 15.513 66.9996 15.7879V15.8665C66.4891 16.0628 65.9785 16.1807 65.4287 16.2592V18.6156C65.5858 18.4585 65.7429 18.3407 65.9 18.2228C65.9 18.2228 65.9 18.2228 65.9393 18.2228C65.9785 18.1836 66.0178 18.1443 66.0963 18.105C66.2534 17.9872 66.4105 17.8694 66.5676 17.7908C66.6069 17.7516 66.6854 17.7123 66.7247 17.673H66.764C66.9211 17.5552 67.0782 17.4767 67.2353 17.3981C67.2745 17.3588 67.3531 17.3588 67.3924 17.3196H67.4316C67.6673 17.2018 67.8636 17.1232 68.0993 17.0054H68.1385C68.1778 16.9661 68.2564 16.9661 68.2956 16.9268C68.2956 16.9268 68.2956 16.9268 68.3349 16.9268C68.492 16.8483 68.6884 16.809 68.8454 16.7698H68.8847C68.924 16.7698 69.0025 16.7305 69.0418 16.7305H69.0811C69.2382 16.6912 69.4345 16.6519 69.5916 16.6127C69.6309 16.6127 69.6309 16.6127 69.6702 16.6127C69.7094 16.6127 69.788 16.6127 69.8273 16.5734C69.8665 16.5734 69.8665 16.5734 69.9058 16.5734H69.9451C69.9844 16.5734 70.0236 16.5734 70.0629 16.5734C70.0629 16.5734 70.0629 16.5734 70.1022 16.5734C70.22 16.5734 70.3378 16.5341 70.4164 16.5341C70.4556 16.5341 70.4556 16.5341 70.4949 16.5341C70.5342 16.5341 70.5734 16.5341 70.652 16.5341C70.6913 16.5341 70.7305 16.5341 70.7305 16.5341C70.7698 16.5341 70.8091 16.5341 70.8876 16.5341C70.9269 16.5341 70.9662 16.5341 71.0055 16.5341C71.0447 16.5341 71.084 16.5341 71.1233 16.5341C71.1625 16.5341 71.2018 16.5341 71.2411 16.5341H71.8302C73.7545 16.5341 75.2862 14.8454 75.2862 12.921V9.58282C75.2862 9.58282 74.108 9.58282 72.2622 9.58282C72.1836 10.1719 72.0265 10.7217 71.8302 11.2323H71.7909C71.4767 11.7821 71.084 12.4497 70.6913 13.0781Z" fill="#80BC00"/>
<path d="M72.1837 9.38651C72.0659 9.9756 71.9088 10.5254 71.7124 11.036H71.7517C71.9873 10.5254 72.1051 9.9756 72.1837 9.38651Z" fill="#80BC00"/>
<path d="M70.6914 13.0782C70.1808 13.7065 69.5917 14.2563 68.9634 14.7669L69.0026 14.8062C69.631 14.2956 70.2201 13.7065 70.6914 13.0782Z" fill="#80BC00"/>
<path d="M66.9601 15.8273C66.4495 16.0237 65.939 16.1415 65.3892 16.2593V16.2986C65.939 16.22 66.4495 16.0629 66.9601 15.9058V15.8273Z" fill="#80BC00"/>
<path d="M72.1835 6.99066H71.0839C69.8272 6.99066 68.6883 7.26557 67.6279 7.77612C67.1174 8.01176 66.6461 8.32594 66.1748 8.64012C65.5464 9.1114 64.9966 9.66121 64.5646 10.2896C64.4075 10.4859 64.2504 10.7216 64.1326 10.9179C63.9755 11.1929 63.8184 11.4285 63.7006 11.7034C63.1901 12.7638 62.9152 13.942 62.9152 15.1594V16.2591V18.7332C61.6977 17.5551 60.1268 16.7303 58.3595 16.4554C58.3595 16.4554 57.6133 16.3769 57.2206 16.3769H57.1813C56.7886 16.3769 55.9639 16.4554 55.9639 16.4554V18.8118C56.3173 18.7332 56.6708 18.694 57.0635 18.694C60.2839 18.694 62.8759 21.286 62.9544 24.5063V25.7631H65.4286V24.4278C65.4679 21.2074 68.0599 18.6154 71.3195 18.6154H71.7908C75.0112 18.6154 77.6425 15.9841 77.6425 12.7638V6.99066H72.1835ZM66.9995 11.075C67.7457 10.3289 68.649 9.81831 69.7094 9.5434C69.5915 10.0932 69.3559 10.5645 69.1203 11.0358C69.081 11.1143 69.0025 11.2321 68.9632 11.3107C68.7275 11.6641 68.4919 11.939 68.217 12.2532C67.9421 12.5281 67.5886 12.803 67.2744 13.0387C67.1959 13.078 67.1174 13.1565 66.9995 13.1958C66.5283 13.4707 66.057 13.667 65.5464 13.7849C65.7428 12.7245 66.2926 11.8212 66.9995 11.075ZM65.3893 16.2198C65.9392 16.1412 66.4497 15.9841 66.9603 15.7878C67.6672 15.5129 68.3348 15.1594 68.9239 14.7274C69.5915 14.2561 70.1414 13.667 70.6126 13.0387C71.0446 12.4496 71.4374 11.7819 71.7123 11.075C71.9086 10.5252 72.0657 9.9754 72.1443 9.42558C72.1443 9.42558 72.1443 9.42558 72.1835 9.42558C74.0686 9.42558 75.2076 9.42558 75.2076 9.42558V12.7638C75.2076 14.6881 73.6366 16.3769 71.7515 16.3769H71.1625C71.1232 16.3769 71.0839 16.3769 71.0446 16.3769C71.0054 16.3769 70.9661 16.3769 70.9268 16.3769C70.8875 16.3769 70.8483 16.3769 70.809 16.3769C70.7697 16.3769 70.7305 16.3769 70.6519 16.3769C70.6126 16.3769 70.5734 16.3769 70.5734 16.3769C70.5341 16.3769 70.4948 16.3769 70.4163 16.3769C70.377 16.3769 70.377 16.3769 70.3377 16.3769C70.2199 16.3769 70.1021 16.4161 70.0235 16.4161C70.0235 16.4161 70.0235 16.4161 69.9843 16.4161C69.945 16.4161 69.9057 16.4161 69.8664 16.4161H69.8272C69.7879 16.4161 69.7879 16.4161 69.7486 16.4161C69.7094 16.4161 69.6308 16.4161 69.5915 16.4554C69.5523 16.4554 69.5523 16.4554 69.513 16.4554C69.3559 16.4947 69.1595 16.534 69.0024 16.5732H68.9632C68.9239 16.5732 68.8454 16.6125 68.8061 16.6125H68.7668C68.5705 16.6518 68.4134 16.7303 68.2563 16.7696C68.2563 16.7696 68.2563 16.7696 68.217 16.7696C68.1777 16.8089 68.0992 16.8089 68.0599 16.8481H68.0206C67.785 16.9267 67.5494 17.0445 67.353 17.1623H67.3137C67.2744 17.2016 67.1959 17.2016 67.1566 17.2409C66.9995 17.3194 66.8424 17.4372 66.6854 17.5158H66.6461C66.6068 17.5551 66.5283 17.5943 66.489 17.6336C66.3319 17.7514 66.1748 17.8692 66.0177 17.9478C65.9784 17.9871 65.9392 18.0263 65.8606 18.0656C65.8606 18.0656 65.8606 18.0656 65.8214 18.0656C65.6643 18.1834 65.5072 18.3405 65.3501 18.4583V16.102V16.2198H65.3893Z" fill="#006937"/>
<path d="M36.7204 10.0932C36.524 10.0932 36.3669 10.0932 36.1705 10.0932C33.5393 10.0932 31.0258 10.5252 28.6694 11.3499C28.9836 12.1354 29.4549 12.8423 29.9654 13.4706C31.6934 12.9208 33.5 12.5674 35.3851 12.4888C35.5815 11.939 35.8171 11.4284 36.1313 10.9179C36.2884 10.643 36.4847 10.3681 36.7204 10.0932Z" fill="#6AAAE4"/>
<path d="M35.1102 13.4706C33.7749 13.6277 32.5574 14.1382 31.4971 14.8451C32.3218 15.4342 33.2643 15.8662 34.2462 16.1019C34.4818 16.0233 34.6782 15.984 34.9138 15.9055V15.1986C34.9138 14.6095 34.9924 14.0204 35.1102 13.4706Z" fill="#6AAAE4"/>
<path d="M28.1196 7.02979C28.0803 7.42251 28.041 7.81524 28.041 8.24724C28.041 8.63997 28.0803 9.0327 28.1196 9.42543H37.3487C38.8018 7.93306 40.844 7.02979 43.0825 7.02979H28.1196Z" fill="#6AAAE4"/>
<path d="M43.6322 5.06623C43.318 4.28077 42.8467 3.57386 42.3362 2.9455C40.4118 3.57386 38.3303 3.92732 36.1703 3.92732C34.0103 3.92732 31.9289 3.57386 30.0045 2.9455C29.4547 3.57386 29.0227 4.28077 28.7085 5.06623C31.0649 5.89096 33.5783 6.32296 36.2096 6.32296C38.7623 6.32296 41.2758 5.89096 43.6322 5.06623Z" fill="#6AAAE4"/>
<path d="M40.8045 1.57076C39.9798 0.981664 39.0372 0.549663 38.0554 0.314026C37.4663 0.51039 36.838 0.628209 36.1703 0.628209C35.5027 0.628209 34.8743 0.51039 34.2852 0.314026C33.2641 0.549663 32.3609 0.981664 31.5361 1.57076C32.8714 2.5133 34.4423 3.02385 36.1703 3.02385C37.8983 3.02385 39.5085 2.5133 40.8045 1.57076Z" fill="#6AAAE4"/>
<path d="M43.5931 11.4284C43.5145 11.5855 43.436 11.7819 43.3574 11.939C43.3182 11.9783 43.3182 12.0175 43.2789 12.0961C43.2004 12.2139 43.1611 12.3317 43.0825 12.4495C43.0433 12.4888 43.004 12.5673 42.9647 12.6066C42.8862 12.7244 42.8469 12.803 42.7684 12.9208C42.7291 12.9601 42.6898 13.0386 42.6505 13.0779C42.572 13.1957 42.4934 13.3135 42.3756 13.3921C42.3756 13.4313 42.3364 13.4313 42.3364 13.4706C41.1189 14.9237 39.3909 15.9055 37.4272 16.2197V18.6154C37.5843 18.4583 37.7414 18.3405 37.8985 18.2226C37.8985 18.2226 37.8985 18.2226 37.9378 18.2226C37.9771 18.1834 38.0163 18.1441 38.0949 18.1048C38.252 17.987 38.4091 17.8692 38.5662 17.7906C38.6054 17.7514 38.684 17.7121 38.7232 17.6728H38.7625C38.9196 17.555 39.0767 17.4765 39.2338 17.3979C39.2731 17.3586 39.3516 17.3586 39.3909 17.3194H39.4302C39.6658 17.2015 39.8622 17.123 40.0978 17.0052H40.1371C40.1763 16.9659 40.2549 16.9659 40.2942 16.9266C40.2942 16.9266 40.2942 16.9266 40.3334 16.9266C40.4905 16.8481 40.6869 16.8088 40.844 16.7695H40.8833C40.9225 16.7695 41.0011 16.7303 41.0403 16.7303H41.0796C41.2367 16.691 41.4331 16.6517 41.5902 16.6124C41.6294 16.6124 41.6294 16.6124 41.6687 16.6124C41.708 16.6124 41.7865 16.6125 41.8258 16.5732C41.8651 16.5732 41.8651 16.5732 41.9043 16.5732H41.9436C41.9829 16.5732 42.0222 16.5732 42.0614 16.5732C42.0614 16.5732 42.0614 16.5732 42.1007 16.5732C42.2185 16.5732 42.3363 16.5339 42.4149 16.5339C42.4542 16.5339 42.4542 16.5339 42.4934 16.5339C42.5327 16.5339 42.572 16.5339 42.6505 16.5339C42.6898 16.5339 42.7291 16.5339 42.7291 16.5339C42.7684 16.5339 42.8076 16.5339 42.8862 16.5339C42.9254 16.5339 42.9647 16.5339 43.004 16.5339C43.0433 16.5339 43.0825 16.5339 43.1218 16.5339C43.1611 16.5339 43.2004 16.5339 43.2396 16.5339H43.8287C45.7531 16.5339 47.2847 14.8452 47.2847 12.9208V9.58261C47.2847 9.58261 46.1065 9.58261 44.2214 9.58261C44.1036 10.2502 43.9465 10.9179 43.6716 11.5463C43.6324 11.3892 43.5931 11.4284 43.5931 11.4284Z" fill="#80BC00"/>
<path d="M43.6317 11.3499C43.6317 11.3889 43.5928 11.3889 43.5928 11.4278C43.5928 11.4278 43.6317 11.3889 43.6317 11.3499Z" fill="#80BC00"/>
<path d="M43.3574 11.9389C43.436 11.7818 43.5145 11.5854 43.5931 11.4283C43.5145 11.6247 43.436 11.7818 43.3574 11.9389Z" fill="#006937"/>
<path d="M42.7681 12.9209C42.8466 12.8031 42.9252 12.7245 42.9644 12.6067C42.8859 12.7245 42.8466 12.8031 42.7681 12.9209Z" fill="#006937"/>
<path d="M43.0825 12.4493C43.1611 12.3315 43.2003 12.2137 43.2789 12.0959C43.2003 12.2137 43.1218 12.3315 43.0825 12.4493Z" fill="#006937"/>
<path d="M42.3755 13.3919C42.454 13.2741 42.5326 13.1955 42.6504 13.0777C42.5719 13.1955 42.454 13.2741 42.3755 13.3919Z" fill="#006937"/>
<path d="M42.9648 12.6065C43.0041 12.5672 43.0434 12.4887 43.0827 12.4494C43.0434 12.4887 43.0041 12.5672 42.9648 12.6065Z" fill="#006937"/>
<path d="M42.6504 13.0778C42.6897 13.0385 42.7289 12.96 42.7682 12.9207C42.7289 12.96 42.6897 12.9992 42.6504 13.0778Z" fill="#006937"/>
<path d="M43.2788 12.096C43.3181 12.0567 43.3181 12.0174 43.3574 11.9389C43.3181 12.0174 43.2788 12.0567 43.2788 12.096Z" fill="#006937"/>
<path d="M42.3754 13.3919C42.3754 13.4309 42.3364 13.4309 42.3364 13.4699C42.3364 13.4309 42.3754 13.4309 42.3754 13.3919Z" fill="#006937"/>
<path d="M44.1821 7.02979H43.0824C40.8439 7.02979 38.8017 7.93306 37.3486 9.42543C37.113 9.66107 36.9166 9.8967 36.7202 10.1323C36.5239 10.4072 36.3275 10.6822 36.1312 10.9571C35.817 11.4283 35.5813 11.9782 35.385 12.528C35.2672 12.8422 35.1886 13.1563 35.1101 13.4705C34.9922 14.0204 34.9137 14.6094 34.9137 15.1985V15.9054V18.7724C33.6962 17.5942 32.1253 16.7695 30.358 16.4945C30.358 16.4945 29.6119 16.416 29.2191 16.416H29.1799C28.7871 16.416 27.9624 16.4945 27.9624 16.4945V18.8509C28.3159 18.7724 28.6693 18.7331 29.062 18.7331C32.2824 18.7331 34.8744 21.3251 34.9137 24.5455V25.8022H37.3879V24.4669C37.4272 21.2466 40.0192 18.6545 43.2395 18.6545H43.7108C46.9312 18.6545 49.5625 16.0233 49.5625 12.8029V7.02979H44.1821ZM37.5842 13.5098C37.6628 13.1956 37.8199 12.8814 37.9377 12.5673C38.2126 12.0174 38.5661 11.5069 38.9981 11.0749C39.2337 10.8393 39.5479 10.6036 39.8228 10.4072C40.3726 10.0145 41.001 9.73961 41.6686 9.58252C41.5901 9.97525 41.433 10.3287 41.2759 10.7214C41.001 11.3105 40.6083 11.8211 40.1763 12.2923C39.9799 12.4887 39.7835 12.6458 39.5479 12.8029C39.0766 13.1563 38.5661 13.4313 38.0163 13.6276C37.8199 13.7062 37.6628 13.7454 37.4664 13.7847C37.545 13.7062 37.545 13.5883 37.5842 13.5098ZM47.2454 12.7243C47.2454 14.6487 45.6745 16.3374 43.7894 16.3374H43.2003C43.161 16.3374 43.1217 16.3374 43.0824 16.3374C43.0432 16.3374 43.0039 16.3374 42.9646 16.3374C42.9254 16.3374 42.8861 16.3374 42.8468 16.3374C42.8075 16.3374 42.7683 16.3374 42.6897 16.3374C42.6504 16.3374 42.6112 16.3374 42.6112 16.3374C42.5719 16.3374 42.5326 16.3374 42.4541 16.3374C42.4148 16.3374 42.4148 16.3374 42.3755 16.3374C42.2577 16.3374 42.1399 16.3767 42.0614 16.3767C42.0614 16.3767 42.0614 16.3767 42.0221 16.3767C41.9828 16.3767 41.9435 16.3767 41.9043 16.3767H41.865C41.8257 16.3767 41.8257 16.3767 41.7864 16.3767C41.7472 16.3767 41.6686 16.3767 41.6294 16.416C41.5901 16.416 41.5901 16.416 41.5508 16.416C41.3937 16.4553 41.1974 16.4945 41.0403 16.5338H41.001C40.9617 16.5338 40.8832 16.5731 40.8439 16.5731H40.8046C40.6083 16.6124 40.4512 16.6909 40.2941 16.7302C40.2941 16.7302 40.2941 16.7302 40.2548 16.7302C40.2155 16.7694 40.137 16.7695 40.0977 16.8087H40.0584C39.8228 16.8873 39.5872 17.0051 39.3908 17.1229H39.3515C39.3123 17.1622 39.2337 17.1622 39.1944 17.2015C39.0373 17.28 38.8803 17.3978 38.7232 17.4764H38.6839C38.6446 17.5156 38.5661 17.5549 38.5268 17.5942C38.3697 17.712 38.2126 17.8298 38.0555 17.9084C38.0163 17.9476 37.977 17.9869 37.8984 18.0262C37.8984 18.0262 37.8984 18.0262 37.8592 18.0262C37.7021 18.144 37.545 18.3011 37.3879 18.4189V16.2196C39.3515 15.9054 41.0795 14.8844 42.297 13.4705C42.3363 13.4313 42.3363 13.4313 42.3363 13.392C42.4148 13.2742 42.4934 13.1956 42.6112 13.0778C42.6504 13.0385 42.6897 12.96 42.729 12.9207C42.8075 12.8029 42.8861 12.7243 42.9254 12.6065C42.9646 12.5673 43.0039 12.4887 43.0432 12.4494C43.1217 12.3316 43.161 12.2138 43.2395 12.096C43.2788 12.0567 43.2788 12.0174 43.3181 11.9389C43.3966 11.7818 43.4752 11.5854 43.5537 11.4283C43.5537 11.3891 43.593 11.3891 43.593 11.3498C43.8679 10.7214 44.025 10.0931 44.1428 9.38616C46.0279 9.38616 47.2061 9.38616 47.2061 9.38616V12.7243H47.2454Z" fill="#006937"/>
<path d="M1.02108 5.73391C1.80654 6.20519 2.78836 5.93028 3.22036 5.1841C3.69163 4.39864 3.41672 3.41682 2.67054 2.98482C2.47417 2.867 2.23854 2.78845 2.04217 2.78845C1.41381 3.53464 0.863987 4.39864 0.549805 5.30191C0.667623 5.45901 0.824715 5.6161 1.02108 5.73391Z" fill="#85754E"/>
<path d="M5.3803 3.10247C6.16575 2.67046 6.44066 1.68864 6.00866 0.903186C5.89084 0.706822 5.73375 0.510458 5.57666 0.392639C4.63411 0.706822 3.77011 1.21737 3.02393 1.84573C3.0632 2.08137 3.10247 2.27774 3.22029 2.4741C3.61302 3.25956 4.59484 3.53447 5.3803 3.10247Z" fill="#85754E"/>
<path d="M4.20227 7.61912C4.94845 8.09039 5.96955 7.81548 6.40155 7.0693C6.87282 6.28384 6.59791 5.30202 5.85173 4.87002C5.06627 4.39874 4.08445 4.67365 3.65245 5.41984C3.18117 6.16602 3.41681 7.18712 4.20227 7.61912Z" fill="#85754E"/>
<path d="M8.16878 9.73954C9.07206 9.73954 9.77897 9.03263 9.77897 8.12935C9.77897 7.22608 9.07206 6.51917 8.16878 6.51917C7.2655 6.51917 6.55859 7.22608 6.55859 8.12935C6.55859 8.99335 7.2655 9.73954 8.16878 9.73954Z" fill="#85754E"/>
<path d="M0.785457 9.66113C1.68873 9.66113 2.39564 8.95422 2.43492 8.05095C2.43492 7.14767 1.72801 6.44076 0.82473 6.40149C0.589093 6.40149 0.353455 6.44076 0.157091 6.51931C0.0392727 7.02985 0 7.5404 0 8.09022C0 8.5615 0.0392729 9.03277 0.117819 9.46477C0.353456 9.58259 0.54982 9.62186 0.785457 9.66113Z" fill="#85754E"/>
<path d="M16.2199 6.91189C16.2199 6.83335 16.2199 6.7548 16.1806 6.67626C15.9843 6.59771 15.7486 6.51917 15.513 6.51917C15.1203 6.51917 14.7275 6.67626 14.4526 6.91189C14.6883 6.87262 14.9239 6.87262 15.1595 6.87262H16.2199V6.91189Z" fill="#85754E"/>
<path d="M7.03008 14.2953C6.7159 14.5703 6.51953 15.0023 6.51953 15.4735C6.51953 15.7092 6.5588 15.9448 6.63735 16.1412C6.75517 16.1804 6.87299 16.1804 6.95153 16.1804V15.1594C6.95153 14.8452 6.99081 14.5703 7.03008 14.2953Z" fill="#85754E"/>
<path d="M8.56172 10.2503C8.4439 10.211 8.28681 10.1718 8.12972 10.1718C7.22644 10.1718 6.51953 10.8787 6.51953 11.7819C6.51953 12.3318 6.79444 12.803 7.22644 13.1172C7.42281 12.2925 7.73699 11.5463 8.16899 10.8394C8.28681 10.643 8.4439 10.4467 8.56172 10.2503Z" fill="#85754E"/>
<path d="M5.81237 15.2771C6.28365 14.4917 6.00874 13.5099 5.22328 13.0779C4.43782 12.6066 3.456 12.8815 3.024 13.667C2.90618 13.8633 2.82764 14.099 2.82764 14.2953C3.57382 14.9237 4.43782 15.4342 5.38037 15.7877C5.53746 15.6306 5.69455 15.4735 5.81237 15.2771Z" fill="#85754E"/>
<path d="M11.0355 3.14202C11.821 3.57402 12.8028 3.33838 13.2348 2.55292C13.3526 2.35656 13.4311 2.12092 13.4311 1.92456C12.685 1.29619 11.821 0.785646 10.8784 0.43219C10.682 0.550008 10.5249 0.746373 10.4071 0.942737C10.0144 1.72819 10.2893 2.71001 11.0355 3.14202Z" fill="#85754E"/>
<path d="M13.1562 5.26243C13.5882 6.04789 14.5701 6.28352 15.3555 5.85152C15.5519 5.73371 15.709 5.57661 15.8661 5.38025C15.5519 4.4377 15.0413 3.5737 14.413 2.82751C14.1773 2.86679 13.981 2.90606 13.7846 3.02388C12.9599 3.49515 12.7242 4.47697 13.1562 5.26243Z" fill="#85754E"/>
<path d="M8.16878 2.39564C9.07206 2.39564 9.77897 1.68873 9.77897 0.785457C9.77897 0.54982 9.73969 0.314183 9.62188 0.117818C9.1506 0.0392728 8.64005 0 8.16878 0C7.65823 0 7.18696 0.0392728 6.71568 0.117818C6.63714 0.314183 6.55859 0.54982 6.55859 0.785457C6.55859 1.64946 7.2655 2.39564 8.16878 2.39564Z" fill="#85754E"/>
<path d="M12.7639 5.49819C12.3319 4.71274 11.3501 4.4771 10.5646 4.9091C9.77917 5.3411 9.54354 6.32292 9.97554 7.10838C10.2504 7.61893 10.761 7.89384 11.2715 7.93311C11.7035 7.69747 12.1355 7.50111 12.6068 7.34402C12.9995 6.7942 13.1174 6.08729 12.7639 5.49819Z" fill="#85754E"/>
<path d="M3.18102 10.9178C2.74902 10.1324 1.7672 9.85747 0.981738 10.2895C0.785374 10.4073 0.58901 10.5644 0.471191 10.7215C0.785374 11.664 1.29592 12.528 1.92429 13.2742C2.15992 13.2349 2.35629 13.1957 2.55265 13.0778C3.33811 12.6851 3.61302 11.7033 3.18102 10.9178Z" fill="#85754E"/>
<path d="M6.3622 9.1112C5.9302 8.32574 4.94838 8.05083 4.16292 8.48283C3.37747 8.91483 3.10256 9.89665 3.53456 10.6821C3.96656 11.4676 4.94838 11.7425 5.73384 11.3105C6.55857 10.8785 6.83348 9.89665 6.3622 9.1112Z" fill="#85754E"/>
<path d="M8.16878 6.04789C9.07206 6.04789 9.77897 5.34098 9.77897 4.4377C9.77897 3.53443 9.07206 2.82751 8.16878 2.82751C7.2655 2.82751 6.55859 3.53443 6.55859 4.4377C6.55859 5.34098 7.2655 6.04789 8.16878 6.04789Z" fill="#85754E"/>
<path d="M9.46484 16.1803V18.5759C9.62194 18.4188 9.77903 18.301 9.93612 18.1832C9.93612 18.1832 9.93612 18.1832 9.97539 18.1832C10.0147 18.1439 10.0539 18.1047 10.1325 18.0654C10.2896 17.9476 10.4467 17.8297 10.6038 17.7119C10.643 17.6727 10.7216 17.6334 10.7608 17.5941H10.8001C10.9572 17.4763 11.1143 17.3977 11.2714 17.3192C11.3107 17.2799 11.3892 17.2799 11.4285 17.2407H11.4678C11.7034 17.1228 11.939 17.005 12.1354 16.9265H12.1747C12.2139 16.8872 12.2925 16.8872 12.3318 16.8479C12.3318 16.8479 12.3318 16.8479 12.371 16.8479C12.5281 16.7694 12.7245 16.7301 12.8816 16.6908H12.9209C12.9601 16.6908 13.0387 16.6516 13.0779 16.6516H13.1172C13.2743 16.6123 13.4707 16.573 13.6278 16.5337C13.667 16.5337 13.667 16.5337 13.7063 16.5337C13.7456 16.5337 13.8241 16.5337 13.8634 16.4945C13.9027 16.4945 13.9027 16.4945 13.9419 16.4945H13.9812C14.0205 16.4945 14.0598 16.4945 14.099 16.4945C14.099 16.4945 14.099 16.4945 14.1383 16.4945C14.2561 16.4945 14.3739 16.4552 14.4525 16.4552C14.4918 16.4552 14.4918 16.4552 14.531 16.4552C14.5703 16.4552 14.6096 16.4552 14.6881 16.4552C14.7274 16.4552 14.7667 16.4552 14.7667 16.4552C14.806 16.4552 14.8452 16.4552 14.9238 16.4552C14.963 16.4552 15.0023 16.4552 15.0416 16.4552C15.0809 16.4552 15.1201 16.4552 15.1594 16.4552C15.1987 16.4552 15.238 16.4552 15.2772 16.4552H15.8663C17.7907 16.4552 19.3616 14.7665 19.3616 12.8028V9.46463C19.3616 9.46463 18.1834 9.46463 16.2983 9.46463C15.7485 12.8421 12.9994 15.6305 9.46484 16.1803Z" fill="#80BC00"/>
<path d="M16.2197 6.91205H15.1593C14.9237 6.91205 14.688 6.91205 14.4524 6.95132C13.7848 6.99059 13.1564 7.14769 12.5673 7.34405C12.096 7.50114 11.664 7.69751 11.232 7.93314C10.1717 8.52224 9.26839 9.30769 8.56148 10.2895C8.40439 10.4859 8.28657 10.6822 8.16875 10.8786C7.73675 11.5855 7.42257 12.3317 7.2262 13.1564C7.14766 13.5492 7.06911 13.9419 7.02984 14.3346C6.99057 14.6095 6.99057 14.8844 6.99057 15.1593V16.1804V18.7332C5.77311 17.5157 4.16292 16.691 2.39564 16.4553C2.39564 16.4553 1.64946 16.3768 1.25673 16.3768H1.21746C0.82473 16.3768 0 16.4553 0 16.4553V18.8117C0.353456 18.7332 0.706911 18.6939 1.09964 18.6939C4.35929 18.6939 6.95129 21.3252 6.99057 24.5456V25.8023H9.50403V24.467C9.5433 21.2074 12.1353 18.6154 15.395 18.6154H15.9055C19.1651 18.6154 21.7964 15.9841 21.7964 12.7244V6.91205H16.2197ZM10.6822 11.4284C10.8 11.2713 10.9179 11.1142 11.0749 10.9964C11.5855 10.4859 12.2139 10.0539 12.9208 9.73969C13.1957 9.62187 13.4706 9.54333 13.7848 9.46478C13.6669 9.93606 13.5099 10.3681 13.2742 10.8001C13.1957 10.9572 13.1171 11.1142 12.9993 11.2321C12.7637 11.5855 12.528 11.8997 12.2531 12.1746C11.9389 12.4888 11.5462 12.803 11.1535 13.0386C11.0749 13.0779 10.9571 13.1564 10.8786 13.1957C10.4466 13.4313 10.0146 13.5884 9.5433 13.7062C9.77894 12.8422 10.1717 12.0961 10.6822 11.4284ZM19.3615 12.6459C19.3615 14.5703 17.7906 16.2983 15.8662 16.2983H15.2771C15.2379 16.2983 15.1986 16.2983 15.1593 16.2983C15.12 16.2983 15.0808 16.2983 15.0415 16.2983C15.0022 16.2983 14.963 16.2983 14.9237 16.2983C14.8844 16.2983 14.8451 16.2983 14.7666 16.2983C14.7273 16.2983 14.688 16.2983 14.688 16.2983C14.6488 16.2983 14.6095 16.2983 14.531 16.2983C14.4917 16.2983 14.4917 16.2983 14.4524 16.2983C14.3346 16.2983 14.2168 16.3375 14.1382 16.3375C14.1382 16.3375 14.1382 16.3375 14.099 16.3375C14.0597 16.3375 14.0204 16.3375 13.9811 16.3375H13.9419C13.9026 16.3375 13.9026 16.3375 13.8633 16.3375C13.824 16.3375 13.7455 16.3375 13.7062 16.3768C13.6669 16.3768 13.6669 16.3768 13.6277 16.3768C13.4706 16.4161 13.2742 16.4553 13.1171 16.4946H13.0779C13.0386 16.4946 12.96 16.5339 12.9208 16.5339H12.8815C12.6851 16.5732 12.528 16.6517 12.3709 16.691C12.3709 16.691 12.3709 16.691 12.3317 16.691C12.2924 16.7303 12.2139 16.7303 12.1746 16.7695H12.1353C11.8997 16.8481 11.664 16.9659 11.4677 17.0837H11.4284C11.3891 17.123 11.3106 17.123 11.2713 17.1623C11.1142 17.2408 10.9571 17.3586 10.8 17.4372H10.7608C10.7215 17.4764 10.6429 17.5157 10.6037 17.555C10.4466 17.6728 10.2895 17.7906 10.1324 17.9084C10.0931 17.9477 10.0538 17.987 9.9753 18.0263C9.9753 18.0263 9.9753 18.0263 9.93603 18.0263C9.77894 18.1441 9.62185 18.3012 9.46475 18.419V16.0233C12.96 15.4735 15.7484 12.6852 16.259 9.1506C18.1441 9.1506 19.3222 9.1506 19.3222 9.1506V12.6459H19.3615Z" fill="#006937"/>
<path d="M10.9962 13.1171C10.957 13.1564 10.9177 13.1957 10.8784 13.1957C10.957 13.1564 11.0748 13.0779 11.1533 13.0386C11.1141 13.0779 11.0748 13.0779 10.9962 13.1171Z" fill="white"/>
<path d="M13.0386 11.232C13.1171 11.0749 13.2349 10.9571 13.3135 10.8C13.2742 10.8786 13.1957 10.9178 13.1564 10.9964C13.0778 11.0749 13.0386 11.1535 13.0386 11.232Z" fill="white"/>
<path d="M92.3698 10.5642C92.2912 10.5642 92.2127 10.5642 92.1341 10.5642C90.8381 10.5642 89.817 9.54313 89.817 8.24713C89.817 6.95113 90.8381 5.93003 92.1341 5.93003C93.4301 5.93003 94.4512 6.9904 94.4512 8.24713C94.4512 8.32568 94.4512 8.40422 94.4512 8.48277C95.1581 8.01149 95.9436 7.61876 96.7683 7.34386C96.3756 5.14458 94.4512 3.49512 92.1341 3.49512C89.5421 3.49512 87.4214 5.61585 87.4214 8.20786C87.4214 10.525 89.0708 12.4493 91.2701 12.8421C91.4665 12.1744 91.7807 11.5068 92.1341 10.9177C92.1734 10.7999 92.2519 10.682 92.3698 10.5642Z" fill="#D79A2B"/>
<path d="M90.9955 13.8633C88.3642 13.3527 86.3613 11.0356 86.3613 8.24725C86.3613 5.06615 88.914 2.51341 92.0951 2.51341C94.8835 2.51341 97.2006 4.51633 97.7111 7.14761C98.1431 7.06906 98.5751 7.02979 99.0464 7.02979H100.067C99.4784 3.14178 96.1402 0.157043 92.0951 0.157043C87.618 0.157043 84.0049 3.77015 84.0049 8.24725C84.0049 12.2924 86.9896 15.6305 90.9169 16.2196V15.1985C90.9169 14.7273 90.9562 14.2953 90.9955 13.8633Z" fill="#D79A2B"/>
<path d="M92.095 6.91208C91.3489 6.91208 90.7598 7.50117 90.7598 8.24736C90.7598 8.99354 91.3489 9.58263 92.095 9.58263C92.8412 9.58263 93.4303 8.99354 93.4303 8.24736C93.4303 7.50117 92.8412 6.91208 92.095 6.91208Z" fill="#D79A2B"/>
<path d="M93.3911 16.2197V18.6154C93.5482 18.4583 93.7053 18.3405 93.8231 18.2226C93.8231 18.2226 93.8231 18.2226 93.8624 18.2226C93.9017 18.1834 93.9409 18.1441 94.0195 18.1048C94.1766 17.987 94.3337 17.8692 94.4908 17.7906C94.53 17.7514 94.6086 17.7121 94.6478 17.6728H94.6871C94.8442 17.555 95.0013 17.4765 95.1584 17.3979C95.1977 17.3586 95.2762 17.3586 95.3155 17.3194H95.3548C95.5904 17.2015 95.7868 17.123 96.0224 17.0052H96.0617C96.1009 16.9659 96.1795 16.9659 96.2188 16.9266C96.2188 16.9266 96.2188 16.9266 96.258 16.9266C96.4151 16.8481 96.6115 16.8088 96.7686 16.7695H96.8078C96.8471 16.7695 96.9257 16.7303 96.9649 16.7303H97.0042C97.1613 16.691 97.3577 16.6517 97.5148 16.6124C97.554 16.6124 97.554 16.6124 97.5933 16.6124C97.6326 16.6124 97.7111 16.6125 97.7504 16.5732C97.7897 16.5732 97.7897 16.5732 97.8289 16.5732C97.8289 16.5732 97.8289 16.5732 97.8682 16.5732H97.9075C97.9468 16.5732 97.986 16.5732 98.0253 16.5732C98.0253 16.5732 98.0253 16.5732 98.0646 16.5732C98.1824 16.5732 98.3002 16.5339 98.3788 16.5339C98.418 16.5339 98.418 16.5339 98.4573 16.5339C98.4966 16.5339 98.5359 16.5339 98.6144 16.5339C98.6537 16.5339 98.6929 16.5339 98.6929 16.5339C98.7322 16.5339 98.7715 16.5339 98.85 16.5339C98.8893 16.5339 98.9286 16.5339 98.9679 16.5339C99.0071 16.5339 99.0464 16.5339 99.0857 16.5339C99.1249 16.5339 99.1642 16.5339 99.2035 16.5339H99.7926C101.717 16.5339 103.249 14.8452 103.249 12.9208V9.58261C103.249 9.58261 102.07 9.58261 100.185 9.58261C99.5962 12.9208 96.8471 15.6699 93.3911 16.2197Z" fill="#8EBD43"/>
<path d="M97.5148 10.0539C97.4755 10.1717 97.4362 10.2502 97.397 10.368C97.4362 10.2502 97.4755 10.1717 97.5148 10.0539Z" fill="#006937"/>
<path d="M100.067 7.02979H99.0463C98.6143 7.02979 98.143 7.06906 97.711 7.1476C97.3576 7.18688 97.0434 7.26542 96.7292 7.38324C95.9045 7.61888 95.119 8.01161 94.4121 8.52215C93.6267 9.07197 92.9198 9.77888 92.3699 10.6036C92.2914 10.7214 92.2128 10.8785 92.095 10.9963C91.7416 11.5854 91.4274 12.2531 91.231 12.9207C91.1525 13.2349 91.0739 13.5883 90.9954 13.9025C90.9168 14.3345 90.8776 14.7665 90.8776 15.2378V16.2589V18.8116C89.6601 17.6335 88.0892 16.8087 86.3219 16.5731C86.3219 16.5731 85.5757 16.4945 85.183 16.4945C85.183 16.4945 85.183 16.4945 85.1437 16.4945C84.751 16.4945 83.9263 16.5731 83.9263 16.5731V18.8902C84.2797 18.8116 84.6332 18.7724 85.0259 18.7724C88.2463 18.7724 90.8383 21.3644 90.8776 24.5847V25.8022H93.3518V24.4669C93.391 21.2466 95.983 18.6545 99.2034 18.6545H99.6747C102.895 18.6545 105.526 16.0233 105.526 12.8029V7.02979H100.067ZM95.0012 11.0749C95.4332 10.6429 95.9438 10.2894 96.4936 10.0145C96.8863 9.81816 97.279 9.66107 97.711 9.58252C97.711 9.62179 97.6718 9.66107 97.6718 9.70034C97.6325 9.81816 97.5932 9.97525 97.5539 10.0931C97.5147 10.2109 97.4754 10.2894 97.4361 10.4072V10.4465C97.3576 10.6036 97.279 10.8 97.2005 10.9571C97.2005 10.9571 97.2005 10.9571 97.2005 10.9963C96.9256 11.4676 96.6114 11.9389 96.2187 12.3316C95.4725 13.0778 94.5692 13.5883 93.5481 13.8633C93.6659 13.4313 93.7838 13.0385 93.9801 12.6851C94.1765 12.0174 94.5299 11.5069 95.0012 11.0749ZM103.17 12.7243C103.17 14.6487 101.599 16.3374 99.714 16.3374H99.1249C99.0856 16.3374 99.0463 16.3374 99.007 16.3374C98.9678 16.3374 98.9285 16.3374 98.8892 16.3374C98.8499 16.3374 98.8107 16.3374 98.7714 16.3374C98.7321 16.3374 98.6929 16.3374 98.6143 16.3374C98.575 16.3374 98.5358 16.3374 98.5358 16.3374C98.4965 16.3374 98.4572 16.3374 98.3787 16.3374C98.3394 16.3374 98.3394 16.3374 98.3001 16.3374C98.1823 16.3374 98.0645 16.3767 97.9859 16.3767C97.9859 16.3767 97.9859 16.3767 97.9467 16.3767C97.9074 16.3767 97.8681 16.3767 97.8289 16.3767H97.7896C97.7896 16.3767 97.7896 16.3767 97.7503 16.3767C97.711 16.3767 97.711 16.3767 97.6718 16.3767C97.6325 16.3767 97.5539 16.3767 97.5147 16.416C97.4754 16.416 97.4754 16.416 97.4361 16.416C97.279 16.4553 97.0827 16.4945 96.9256 16.5338H96.8863C96.847 16.5338 96.7685 16.5731 96.7292 16.5731H96.6899C96.5329 16.6124 96.3365 16.6909 96.1794 16.7302C96.1794 16.7302 96.1794 16.7302 96.1401 16.7302C96.1009 16.7694 96.0223 16.7695 95.983 16.8087H95.9438C95.7081 16.8873 95.4725 17.0051 95.2761 17.1229H95.2368C95.1976 17.1622 95.119 17.1622 95.0798 17.2015C94.9227 17.28 94.7656 17.3978 94.6085 17.4764H94.5692C94.5299 17.5156 94.4514 17.5549 94.4121 17.5942C94.255 17.712 94.0979 17.7905 93.9408 17.9084C93.9016 17.9476 93.8623 17.9869 93.7838 18.0262C93.7838 18.0262 93.7838 18.0262 93.7445 18.0262C93.5874 18.144 93.4303 18.3011 93.3125 18.4189V16.2196C96.8078 15.6698 99.5569 12.9207 100.067 9.42543C101.953 9.42543 103.131 9.42543 103.131 9.42543V12.7243H103.17Z" fill="#006937"/>
<path d="M97.6716 9.58261C97.6716 9.62188 97.6323 9.66116 97.6323 9.70043C97.6323 9.62188 97.6716 9.62188 97.6716 9.58261Z" fill="white"/>
<path d="M0.0390625 28.7082H4.43762L8.20781 36.602C9.18963 38.6835 9.97509 40.7649 10.3678 42.1787C10.2107 40.6471 10.0929 38.1336 10.0536 36.7591L9.97509 28.7082H13.7453V48.4231H9.58236L6.2049 40.8827C5.14453 38.4086 3.92707 35.6202 3.53434 34.4027C3.69144 36.0129 3.69144 38.33 3.73071 39.9795L3.84853 48.3839H0.0390625V28.7082Z" fill="#006937"/>
<path d="M26.5087 44.5744L28.0011 46.8522C26.3124 48.2268 24.5844 48.8551 22.5422 48.8551C18.3793 48.8551 15.6694 45.9097 15.6694 41.354C15.6694 38.762 16.2193 37.034 17.476 35.5809C18.6542 34.2456 20.1073 33.6173 22.0316 33.6173C23.7204 33.6173 25.2913 34.1671 26.2338 35.1489C27.5691 36.5235 28.1582 38.4478 28.1582 41.5111C28.1582 41.8253 28.1582 41.9431 28.1582 42.3751H19.7538V42.4929C19.7538 44.7315 20.8534 46.0275 22.8171 46.0275C24.1131 46.0275 25.3306 45.5169 26.5087 44.5744ZM19.8324 39.5868H24.2309V39.4297C24.2309 38.3693 24.1131 37.7802 23.7596 37.2304C23.4062 36.6806 22.8564 36.3664 22.0709 36.3664C20.6178 36.3664 19.7931 37.5053 19.7931 39.5082V39.5868H19.8324Z" fill="#006937"/>
<path d="M43.7105 33.0676L45.2814 35.4633C44.4567 36.2487 43.6712 36.5236 42.6108 36.5236C42.2574 36.5236 42.1003 36.4844 41.629 36.4451C42.1788 37.1127 42.493 37.8589 42.493 38.8407C42.493 41.3542 40.2152 43.1607 37.1519 43.1607C36.9948 43.1607 36.877 43.1607 36.6021 43.1215C35.6203 43.5927 35.1097 43.9069 35.1097 44.2997C35.1097 44.496 35.3454 44.6531 35.7381 44.6531L37.7803 44.6924C39.9796 44.7317 41.1577 45.0458 42.1788 45.9884C43.0428 46.7738 43.4356 47.7557 43.4356 49.0909C43.4356 50.3084 43.0821 51.2509 42.2574 52.115C41.0007 53.4895 38.8014 54 36.5236 54C34.4421 54 32.3214 53.6466 31.0254 52.4291C30.2399 51.683 29.8472 50.8582 29.8472 49.8371C29.8472 49.0517 30.0435 48.6589 30.2006 48.3448H33.6959C33.5781 48.6589 33.5388 48.7768 33.5388 49.2873C33.5388 50.4655 34.5206 51.0546 36.2486 51.0546C37.309 51.0546 38.1337 50.8975 38.6443 50.5833C39.1941 50.2299 39.5476 49.68 39.5476 49.0909C39.5476 48.5411 39.2726 48.0306 38.8799 47.7949C38.4872 47.5986 37.9374 47.4415 36.877 47.3629C36.6806 47.3629 36.1308 47.3237 35.2668 47.3237C33.5781 47.2844 32.4784 47.1273 31.7715 46.8524C31.4181 46.6953 31.1432 46.4597 30.9468 46.1455C30.7897 45.792 30.6719 45.3993 30.6719 44.9673C30.6719 44.4175 30.829 43.9855 31.1432 43.632C31.5752 43.1607 32.5177 42.7287 33.3425 42.5324C31.261 41.9826 30.2399 40.6473 30.2399 38.4873C30.2399 35.5025 32.6355 33.5782 36.3665 33.5782C37.1912 33.5782 37.9374 33.6567 38.9585 33.9316C40.0188 34.1673 40.2545 34.2458 40.765 34.2458C41.7861 34.3244 42.8465 33.8924 43.7105 33.0676ZM36.2879 36.4451C34.8348 36.4451 34.0101 37.2305 34.0101 38.6051C34.0101 40.0975 34.9134 40.6866 36.2486 40.6866C37.741 40.6866 38.5657 39.9404 38.5657 38.6051C38.605 37.2305 37.741 36.4451 36.2879 36.4451Z" fill="#006937"/>
<path d="M51.958 33.6173C54.0395 33.6173 55.6496 34.3242 56.9064 35.8166C58.0846 37.1911 58.5951 38.762 58.5951 41.1184C58.5951 43.6319 58.0453 45.3206 56.7886 46.7344C55.6889 47.9911 54.2358 48.7373 51.9973 48.7373C48.07 48.7373 45.478 45.7919 45.478 41.2362C45.4387 36.6413 48.07 33.6173 51.958 33.6173ZM52.0365 36.4449C51.1333 36.4449 50.3871 36.9947 50.0729 37.9373C49.8373 38.6835 49.6802 39.7046 49.6802 41.1577C49.6802 42.8464 49.8373 44.0639 50.1514 44.81C50.5049 45.5955 51.3296 45.9882 52.0758 45.9882C53.7253 45.9882 54.4322 44.5351 54.4322 41.0791C54.4322 39.1155 54.1573 37.8587 53.6467 37.1911C53.2933 36.7198 52.7042 36.4449 52.0365 36.4449Z" fill="#006937"/>
<path d="M71.1621 35.149L69.3162 37.6625C68.57 36.9556 67.7453 36.5236 66.9991 36.5236C65.3104 36.5236 64.5249 38.0159 64.5249 41.3934C64.5249 43.2785 64.7606 44.4174 65.2711 45.0458C65.6639 45.5563 66.3315 45.8705 66.9599 45.8705C67.8239 45.8705 68.6486 45.5171 69.5519 44.6923L69.7875 44.496L71.5155 46.8131C70.9657 47.3629 70.6908 47.5592 70.1802 47.8734C69.1591 48.4625 68.0202 48.7767 66.6457 48.7767C62.6398 48.7767 60.3228 45.9883 60.3228 41.2756C60.3228 37.9374 61.5795 35.6989 63.3075 34.5599C64.2893 33.8923 65.7031 33.4996 66.9206 33.4996C67.9024 33.4996 68.9235 33.7352 69.709 34.1672C70.2981 34.4028 70.5337 34.5992 71.1621 35.149Z" fill="#006937"/>
<path d="M75.1286 27.5693C76.4246 27.5693 77.4064 28.6297 77.4064 29.9257C77.4064 31.2217 76.346 32.2821 75.05 32.2821C73.7933 32.2821 72.7329 31.2217 72.7329 29.9257C72.7329 28.5904 73.7933 27.5693 75.1286 27.5693ZM73.1649 34.1672L76.9744 33.5781V48.4232H73.1649V34.1672Z" fill="#006937"/>
<path d="M85.9287 33.6173C88.0102 33.6173 89.6203 34.3242 90.8771 35.8166C92.0553 37.1911 92.5658 38.762 92.5658 41.1184C92.5658 43.6319 92.016 45.3206 90.7593 46.7344C89.6596 47.9911 88.2065 48.7373 85.968 48.7373C82.0407 48.7373 79.4487 45.7919 79.4487 41.2362C79.4094 36.6413 82.0014 33.6173 85.9287 33.6173ZM85.968 36.4449C85.0647 36.4449 84.3185 36.9947 84.0043 37.9373C83.7687 38.6835 83.6116 39.7046 83.6116 41.1577C83.6116 42.8464 83.7687 44.0639 84.0829 44.81C84.4363 45.5955 85.2611 45.9882 86.0072 45.9882C87.6567 45.9882 88.3636 44.5351 88.3636 41.0791C88.3636 39.1155 88.0887 37.8587 87.6174 37.1911C87.264 36.7198 86.6356 36.4449 85.968 36.4449Z" fill="#006937"/>
<path d="M105.094 34.874L103.837 37.4268C102.384 36.6806 101.324 36.3664 100.264 36.3664C99.1639 36.3664 98.4178 36.9162 98.4178 37.7802C98.4178 38.5264 98.889 38.9191 100.224 39.2726L101.992 39.7439C103.798 40.2151 104.387 40.7257 104.898 41.3933C105.448 42.061 105.683 42.8857 105.683 43.8675C105.683 46.8915 103.17 48.9337 99.4781 48.9337C97.6716 48.9337 95.7472 48.3839 93.6265 47.245L95.001 44.4566C96.1792 45.1635 98.1821 46.1061 99.8316 46.1061C100.892 46.1061 101.756 45.3992 101.756 44.4566C101.756 43.4748 101.049 42.9642 99.5174 42.6893L97.8287 42.3752C96.8468 42.2181 95.6687 41.5112 95.1581 40.8828C94.6476 40.2544 94.3334 39.1941 94.3334 38.2908C94.3334 35.4631 96.5719 33.5388 99.9494 33.5388C102.227 33.4995 103.759 34.2064 105.094 34.874Z" fill="#006937"/>
</svg>
